<svg width="123" height="184" viewBox="0 0 123 184" fill="none" xmlns="http://www.w3.org/2000/svg">
<path d="M13.1453 165.64C9.73192 165.64 7.12925 164.68 5.33725 162.76C3.54525 160.797 2.64925 158.003 2.64925 154.376V120.2H9.68925V154.888C9.68925 156.424 9.98792 157.533 10.5853 158.216C11.2253 158.899 12.1213 159.24 13.2733 159.24C14.4253 159.24 15.2999 158.899 15.8973 158.216C16.5373 157.533 16.8573 156.424 16.8573 154.888V120.2H23.6413V154.376C23.6413 158.003 22.7453 160.797 20.9533 162.76C19.1613 164.68 16.5586 165.64 13.1453 165.64ZM37.8073 165.64C34.3939 165.64 31.8126 164.68 30.0633 162.76C28.3139 160.797 27.4393 158.003 27.4393 154.376V151.816H34.0953V154.888C34.0953 157.789 35.3113 159.24 37.7433 159.24C38.9379 159.24 39.8339 158.899 40.4313 158.216C41.0713 157.491 41.3913 156.339 41.3913 154.76C41.3913 152.883 40.9646 151.24 40.1113 149.832C39.2579 148.381 37.6793 146.653 35.3753 144.648C32.4739 142.088 30.4473 139.784 29.2953 137.736C28.1433 135.645 27.5673 133.299 27.5673 130.696C27.5673 127.155 28.4633 124.424 30.2552 122.504C32.0473 120.541 34.6499 119.56 38.0633 119.56C41.4339 119.56 43.9726 120.541 45.6793 122.504C47.4286 124.424 48.3033 127.197 48.3033 130.824V132.68H41.6473V130.376C41.6473 128.84 41.3486 127.731 40.7513 127.048C40.1539 126.323 39.2793 125.96 38.1273 125.96C35.7806 125.96 34.6073 127.389 34.6073 130.248C34.6073 131.869 35.0339 133.384 35.8873 134.792C36.7833 136.2 38.3833 137.907 40.6873 139.912C43.6313 142.472 45.6579 144.797 46.7673 146.888C47.8766 148.979 48.4313 151.432 48.4313 154.248C48.4313 157.917 47.5139 160.733 45.6793 162.696C43.8873 164.659 41.2633 165.64 37.8073 165.64ZM52.4678 120.2H71.6678V126.6H59.5078V138.44H69.1718V144.84H59.5078V158.6H71.6678V165H52.4678V120.2ZM75.7178 120.2H86.1498C89.7764 120.2 92.4218 121.053 94.0858 122.76C95.7498 124.424 96.5818 127.005 96.5818 130.504V133.256C96.5818 137.907 95.0458 140.851 91.9738 142.088V142.216C93.6804 142.728 94.8751 143.773 95.5578 145.352C96.2831 146.931 96.6458 149.043 96.6458 151.688V159.56C96.6458 160.84 96.6884 161.885 96.7738 162.696C96.8591 163.464 97.0724 164.232 97.4138 165H90.2458C89.9898 164.275 89.8191 163.592 89.7338 162.952C89.6484 162.312 89.6058 161.16 89.6058 159.496V151.304C89.6058 149.256 89.2644 147.827 88.5818 147.016C87.9418 146.205 86.8111 145.8 85.1898 145.8H82.7578V165H75.7178V120.2ZM85.3178 139.4C86.7258 139.4 87.7711 139.037 88.4538 138.312C89.1791 137.587 89.5417 136.371 89.5417 134.664V131.208C89.5417 129.587 89.2431 128.413 88.6458 127.688C88.0911 126.963 87.1951 126.6 85.9578 126.6H82.7578V139.4H85.3178ZM110.682 165.64C107.269 165.64 104.688 164.68 102.938 162.76C101.189 160.797 100.314 158.003 100.314 154.376V151.816H106.97V154.888C106.97 157.789 108.186 159.24 110.618 159.24C111.813 159.24 112.709 158.899 113.306 158.216C113.946 157.491 114.266 156.339 114.266 154.76C114.266 152.883 113.84 151.24 112.986 149.832C112.133 148.381 110.554 146.653 108.25 144.648C105.349 142.088 103.322 139.784 102.17 137.736C101.018 135.645 100.442 133.299 100.442 130.696C100.442 127.155 101.338 124.424 103.13 122.504C104.922 120.541 107.525 119.56 110.938 119.56C114.309 119.56 116.848 120.541 118.554 122.504C120.304 124.424 121.178 127.197 121.178 130.824V132.68H114.522V130.376C114.522 128.84 114.224 127.731 113.626 127.048C113.029 126.323 112.154 125.96 111.002 125.96C108.656 125.96 107.482 127.389 107.482 130.248C107.482 131.869 107.909 133.384 108.762 134.792C109.658 136.2 111.258 137.907 113.562 139.912C116.506 142.472 118.533 144.797 119.642 146.888C120.752 148.979 121.306 151.432 121.306 154.248C121.306 157.917 120.389 160.733 118.554 162.696C116.762 164.659 114.138 165.64 110.682 165.64Z" fill="#EF8530"/>
<mask id="path-2-inside-1_83_113" fill="white">
<path d="M60.0481 48.2326C70.0231 48.2326 77.7814 40.1048 77.7814 30.1298C77.7814 20.1548 69.6536 12.3965 59.6786 12.3965C49.7036 12.3965 41.9453 20.5243 41.9453 30.1298C41.9453 40.1048 50.0731 48.2326 60.0481 48.2326ZM59.6786 19.7854C60.0481 19.7854 60.0481 19.7854 59.6786 19.7854C65.5898 19.7854 70.3925 24.5882 70.3925 30.4993C70.3925 36.4104 65.5898 40.8437 59.6786 40.8437C53.7675 40.8437 49.3342 36.0409 49.3342 30.4993C49.3342 24.5882 54.137 19.7854 59.6786 19.7854V19.7854Z"/>
</mask>
<path d="M60.0481 48.2326C70.0231 48.2326 77.7814 40.1048 77.7814 30.1298C77.7814 20.1548 69.6536 12.3965 59.6786 12.3965C49.7036 12.3965 41.9453 20.5243 41.9453 30.1298C41.9453 40.1048 50.0731 48.2326 60.0481 48.2326ZM59.6786 19.7854C60.0481 19.7854 60.0481 19.7854 59.6786 19.7854C65.5898 19.7854 70.3925 24.5882 70.3925 30.4993C70.3925 36.4104 65.5898 40.8437 59.6786 40.8437C53.7675 40.8437 49.3342 36.0409 49.3342 30.4993C49.3342 24.5882 54.137 19.7854 59.6786 19.7854V19.7854Z" fill="black"/>
<path d="M60.0481 86.2326C92.0261 86.2326 115.781 60.0608 115.781 30.1298H39.7814C39.7814 20.1488 48.0201 10.2326 60.0481 10.2326V86.2326ZM115.781 30.1298C115.781 -1.84823 89.6096 -25.6035 59.6786 -25.6035V50.3965C49.6977 50.3965 39.7814 42.1579 39.7814 30.1298H115.781ZM59.6786 -25.6035C28.2032 -25.6035 3.94531 0.054781 3.94531 30.1298H79.9453C79.9453 40.9937 71.2041 50.3965 59.6786 50.3965V-25.6035ZM3.94531 30.1298C3.94531 61.0916 29.0863 86.2326 60.0481 86.2326V10.2326C71.0599 10.2326 79.9453 19.118 79.9453 30.1298H3.94531ZM59.6786 57.7854C59.6794 57.7854 59.6801 57.7854 59.6808 57.7854C59.6815 57.7854 59.6822 57.7854 59.683 57.7854C59.6837 57.7854 59.6844 57.7854 59.6851 57.7854C59.6858 57.7854 59.6865 57.7854 59.6872 57.7854C59.6879 57.7854 59.6887 57.7854 59.6894 57.7854C59.6901 57.7854 59.6908 57.7854 59.6915 57.7854C59.6922 57.7854 59.6929 57.7854 59.6936 57.7854C59.6943 57.7854 59.695 57.7854 59.6957 57.7854C59.6964 57.7854 59.6971 57.7854 59.6978 57.7854C59.6985 57.7854 59.6992 57.7854 59.6999 57.7854C59.7006 57.7854 59.7013 57.7854 59.7019 57.7854C59.7026 57.7854 59.7033 57.7854 59.704 57.7854C59.7047 57.7854 59.7054 57.7854 59.7061 57.7854C59.7068 57.7854 59.7074 57.7854 59.7081 57.7854C59.7088 57.7854 59.7095 57.7854 59.7102 57.7854C59.7108 57.7854 59.7115 57.7854 59.7122 57.7854C59.7129 57.7854 59.7135 57.7854 59.7142 57.7854C59.7149 57.7854 59.7156 57.7854 59.7162 57.7854C59.7169 57.7854 59.7176 57.7854 59.7182 57.7854C59.7189 57.7854 59.7196 57.7854 59.7202 57.7854C59.7209 57.7854 59.7216 57.7854 59.7222 57.7854C59.7229 57.7854 59.7236 57.7854 59.7242 57.7854C59.7249 57.7854 59.7255 57.7854 59.7262 57.7854C59.7269 57.7854 59.7275 57.7854 59.7282 57.7854C59.7288 57.7854 59.7295 57.7854 59.7301 57.7854C59.7308 57.7854 59.7314 57.7854 59.7321 57.7854C59.7327 57.7854 59.7334 57.7854 59.734 57.7854C59.7347 57.7854 59.7353 57.7854 59.7359 57.7854C59.7366 57.7854 59.7372 57.7854 59.7379 57.7854C59.7385 57.7854 59.7391 57.7854 59.7398 57.7854C59.7404 57.7854 59.7411 57.7854 59.7417 57.7854C59.7423 57.7854 59.743 57.7854 59.7436 57.7854C59.7442 57.7854 59.7448 57.7854 59.7455 57.7854C59.7461 57.7854 59.7467 57.7854 59.7474 57.7854C59.748 57.7854 59.7486 57.7854 59.7492 57.7854C59.7499 57.7854 59.7505 57.7854 59.7511 57.7854C59.7517 57.7854 59.7523 57.7854 59.753 57.7854C59.7536 57.7854 59.7542 57.7854 59.7548 57.7854C59.7554 57.7854 59.756 57.7854 59.7566 57.7854C59.7572 57.7854 59.7579 57.7854 59.7585 57.7854C59.7591 57.7854 59.7597 57.7854 59.7603 57.7854C59.7609 57.7854 59.7615 57.7854 59.7621 57.7854C59.7627 57.7854 59.7633 57.7854 59.7639 57.7854C59.7645 57.7854 59.7651 57.7854 59.7657 57.7854C59.7663 57.7854 59.7669 57.7854 59.7675 57.7854C59.7681 57.7854 59.7687 57.7854 59.7693 57.7854C59.7699 57.7854 59.7705 57.7854 59.771 57.7854C59.7716 57.7854 59.7722 57.7854 59.7728 57.7854C59.7734 57.7854 59.774 57.7854 59.7746 57.7854C59.7751 57.7854 59.7757 57.7854 59.7763 57.7854C59.7769 57.7854 59.7775 57.7854 59.778 57.7854C59.7786 57.7854 59.7792 57.7854 59.7798 57.7854C59.7804 57.7854 59.7809 57.7854 59.7815 57.7854C59.7821 57.7854 59.7826 57.7854 59.7832 57.7854C59.7838 57.7854 59.7843 57.7854 59.7849 57.7854C59.7855 57.7854 59.786 57.7854 59.7866 57.7854C59.7872 57.7854 59.7877 57.7854 59.7883 57.7854C59.7889 57.7854 59.7894 57.7854 59.79 57.7854C59.7905 57.7854 59.7911 57.7854 59.7916 57.7854C59.7922 57.7854 59.7928 57.7854 59.7933 57.7854C59.7939 57.7854 59.7944 57.7854 59.795 57.7854C59.7955 57.7854 59.7961 57.7854 59.7966 57.7854C59.7972 57.7854 59.7977 57.7854 59.7982 57.7854C59.7988 57.7854 59.7993 57.7854 59.7999 57.7854C59.8004 57.7854 59.8009 57.7854 59.8015 57.7854C59.802 57.7854 59.8026 57.7854 59.8031 57.7854C59.8036 57.7854 59.8042 57.7854 59.8047 57.7854C59.8052 57.7854 59.8058 57.7854 59.8063 57.7854C59.8068 57.7854 59.8074 57.7854 59.8079 57.7854C59.8084 57.7854 59.8089 57.7854 59.8095 57.7854C59.81 57.7854 59.8105 57.7854 59.811 57.7854C59.8115 57.7854 59.8121 57.7854 59.8126 57.7854C59.8131 57.7854 59.8136 57.7854 59.8141 57.7854C59.8147 57.7854 59.8152 57.7854 59.8157 57.7854C59.8162 57.7854 59.8167 57.7854 59.8172 57.7854C59.8177 57.7854 59.8182 57.7854 59.8187 57.7854C59.8192 57.7854 59.8198 57.7854 59.8203 57.7854C59.8208 57.7854 59.8213 57.7854 59.8218 57.7854C59.8223 57.7854 59.8228 57.7854 59.8233 57.7854C59.8238 57.7854 59.8243 57.7854 59.8248 57.7854C59.8253 57.7854 59.8258 57.7854 59.8262 57.7854C59.8267 57.7854 59.8272 57.7854 59.8277 57.7854C59.8282 57.7854 59.8287 57.7854 59.8292 57.7854C59.8297 57.7854 59.8302 57.7854 59.8306 57.7854C59.8311 57.7854 59.8316 57.7854 59.8321 57.7854C59.8326 57.7854 59.8331 57.7854 59.8335 57.7854C59.834 57.7854 59.8345 57.7854 59.835 57.7854C59.8354 57.7854 59.8359 57.7854 59.8364 57.7854C59.8369 57.7854 59.8373 57.7854 59.8378 57.7854C59.8383 57.7854 59.8388 57.7854 59.8392 57.7854C59.8397 57.7854 59.8402 57.7854 59.8406 57.7854C59.8411 57.7854 59.8416 57.7854 59.842 57.7854C59.8425 57.7854 59.8429 57.7854 59.8434 57.7854C59.8439 57.7854 59.8443 57.7854 59.8448 57.7854C59.8452 57.7854 59.8457 57.7854 59.8461 57.7854C59.8466 57.7854 59.847 57.7854 59.8475 57.7854C59.8479 57.7854 59.8484 57.7854 59.8488 57.7854C59.8493 57.7854 59.8497 57.7854 59.8502 57.7854C59.8506 57.7854 59.8511 57.7854 59.8515 57.7854C59.852 57.7854 59.8524 57.7854 59.8528 57.7854C59.8533 57.7854 59.8537 57.7854 59.8542 57.7854C59.8546 57.7854 59.855 57.7854 59.8555 57.7854C59.8559 57.7854 59.8563 57.7854 59.8568 57.7854C59.8572 57.7854 59.8576 57.7854 59.858 57.7854C59.8585 57.7854 59.8589 57.7854 59.8593 57.7854C59.8598 57.7854 59.8602 57.7854 59.8606 57.7854C59.861 57.7854 59.8614 57.7854 59.8619 57.7854C59.8623 57.7854 59.8627 57.7854 59.8631 57.7854C59.8635 57.7854 59.864 57.7854 59.8644 57.7854C59.8648 57.7854 59.8652 57.7854 59.8656 57.7854C59.866 57.7854 59.8664 57.7854 59.8668 57.7854C59.8672 57.7854 59.8677 57.7854 59.8681 57.7854C59.8685 57.7854 59.8689 57.7854 59.8693 57.7854C59.8697 57.7854 59.8701 57.7854 59.8705 57.7854C59.8709 57.7854 59.8713 57.7854 59.8717 57.7854C59.8721 57.7854 59.8725 57.7854 59.8729 57.7854C59.8733 57.7854 59.8736 57.7854 59.874 57.7854C59.8744 57.7854 59.8748 57.7854 59.8752 57.7854C59.8756 57.7854 59.876 57.7854 59.8764 57.7854C59.8768 57.7854 59.8771 57.7854 59.8775 57.7854C59.8779 57.7854 59.8783 57.7854 59.8787 57.7854C59.8791 57.7854 59.8794 57.7854 59.8798 57.7854C59.8802 57.7854 59.8806 57.7854 59.8809 57.7854C59.8813 57.7854 59.8817 57.7854 59.8821 57.7854C59.8824 57.7854 59.8828 57.7854 59.8832 57.7854C59.8835 57.7854 59.8839 57.7854 59.8843 57.7854C59.8846 57.7854 59.885 57.7854 59.8854 57.7854C59.8857 57.7854 59.8861 57.7854 59.8865 57.7854C59.8868 57.7854 59.8872 57.7854 59.8875 57.7854C59.8879 57.7854 59.8882 57.7854 59.8886 57.7854C59.889 57.7854 59.8893 57.7854 59.8897 57.7854C59.89 57.7854 59.8904 57.7854 59.8907 57.7854C59.8911 57.7854 59.8914 57.7854 59.8918 57.7854C59.8921 57.7854 59.8925 57.7854 59.8928 57.7854C59.8931 57.7854 59.8935 57.7854 59.8938 57.7854C59.8942 57.7854 59.8945 57.7854 59.8948 57.7854C59.8952 57.7854 59.8955 57.7854 59.8959 57.7854C59.8962 57.7854 59.8965 57.7854 59.8969 57.7854C59.8972 57.7854 59.8975 57.7854 59.8979 57.7854C59.8982 57.7854 59.8985 57.7854 59.8988 57.7854C59.8992 57.7854 59.8995 57.7854 59.8998 57.7854C59.9001 57.7854 59.9005 57.7854 59.9008 57.7854C59.9011 57.7854 59.9014 57.7854 59.9017 57.7854C59.9021 57.7854 59.9024 57.7854 59.9027 57.7854C59.903 57.7854 59.9033 57.7854 59.9036 57.7854C59.9039 57.7854 59.9043 57.7854 59.9046 57.7854C59.9049 57.7854 59.9052 57.7854 59.9055 57.7854C59.9058 57.7854 59.9061 57.7854 59.9064 57.7854C59.9067 57.7854 59.907 57.7854 59.9073 57.7854C59.9076 57.7854 59.9079 57.7854 59.9082 57.7854C59.9085 57.7854 59.9088 57.7854 59.9091 57.7854C59.9094 57.7854 59.9097 57.7854 59.91 57.7854C59.9103 57.7854 59.9106 57.7854 59.9109 57.7854C59.9112 57.7854 59.9115 57.7854 59.9117 57.7854C59.912 57.7854 59.9123 57.7854 59.9126 57.7854C59.9129 57.7854 59.9132 57.7854 59.9134 57.7854C59.9137 57.7854 59.914 57.7854 59.9143 57.7854C59.9146 57.7854 59.9148 57.7854 59.9151 57.7854C59.9154 57.7854 59.9157 57.7854 59.9159 57.7854C59.9162 57.7854 59.9165 57.7854 59.9168 57.7854C59.917 57.7854 59.9173 57.7854 59.9176 57.7854C59.9178 57.7854 59.9181 57.7854 59.9184 57.7854C59.9186 57.7854 59.9189 57.7854 59.9192 57.7854C59.9194 57.7854 59.9197 57.7854 59.9199 57.7854C59.9202 57.7854 59.9205 57.7854 59.9207 57.7854C59.921 57.7854 59.9212 57.7854 59.9215 57.7854C59.9217 57.7854 59.922 57.7854 59.9222 57.7854C59.9225 57.7854 59.9227 57.7854 59.923 57.7854C59.9232 57.7854 59.9235 57.7854 59.9237 57.7854C59.924 57.7854 59.9242 57.7854 59.9245 57.7854C59.9247 57.7854 59.9249 57.7854 59.9252 57.7854C59.9254 57.7854 59.9257 57.7854 59.9259 57.7854C59.9261 57.7854 59.9264 57.7854 59.9266 57.7854C59.9268 57.7854 59.9271 57.7854 59.9273 57.7854C59.9275 57.7854 59.9278 57.7854 59.928 57.7854C59.9282 57.7854 59.9284 57.7854 59.9287 57.7854C59.9289 57.7854 59.9291 57.7854 59.9293 57.7854C59.9296 57.7854 59.9298 57.7854 59.93 57.7854C59.9302 57.7854 59.9304 57.7854 59.9307 57.7854C59.9309 57.7854 59.9311 57.7854 59.9313 57.7854C59.9315 57.7854 59.9317 57.7854 59.9319 57.7854C59.9322 57.7854 59.9324 57.7854 59.9326 57.7854C59.9328 57.7854 59.933 57.7854 59.9332 57.7854C59.9334 57.7854 59.9336 57.7854 59.9338 57.7854C59.934 57.7854 59.9342 57.7854 59.9344 57.7854C59.9346 57.7854 59.9348 57.7854 59.935 57.7854C59.9352 57.7854 59.9354 57.7854 59.9356 57.7854C59.9358 57.7854 59.936 57.7854 59.9362 57.7854C59.9364 57.7854 59.9366 57.7854 59.9367 57.7854C59.9369 57.7854 59.9371 57.7854 59.9373 57.7854C59.9375 57.7854 59.9377 57.7854 59.9379 57.7854C59.938 57.7854 59.9382 57.7854 59.9384 57.7854C59.9386 57.7854 59.9388 57.7854 59.9389 57.7854C59.9391 57.7854 59.9393 57.7854 59.9395 57.7854C59.9396 57.7854 59.9398 57.7854 59.94 57.7854C59.9402 57.7854 59.9403 57.7854 59.9405 57.7854C59.9407 57.7854 59.9408 57.7854 59.941 57.7854C59.9412 57.7854 59.9413 57.7854 59.9415 57.7854C59.9417 57.7854 59.9418 57.7854 59.942 57.7854C59.9422 57.7854 59.9423 57.7854 59.9425 57.7854C59.9426 57.7854 59.9428 57.7854 59.9429 57.7854C59.9431 57.7854 59.9432 57.7854 59.9434 57.7854C59.9436 57.7854 59.9437 57.7854 59.9439 57.7854C59.944 57.7854 59.9441 57.7854 59.9443 57.7854C59.9444 57.7854 59.9446 57.7854 59.9447 57.7854C59.9449 57.7854 59.945 57.7854 59.9452 57.7854C59.9453 57.7854 59.9454 57.7854 59.9456 57.7854C59.9457 57.7854 59.9459 57.7854 59.946 57.7854C59.9461 57.7854 59.9463 57.7854 59.9464 57.7854C59.9465 57.7854 59.9467 57.7854 59.9468 57.7854C59.9469 57.7854 59.947 57.7854 59.9472 57.7854C59.9473 57.7854 59.9474 57.7854 59.9475 57.7854C59.9477 57.7854 59.9478 57.7854 59.9479 57.7854C59.948 57.7854 59.9482 57.7854 59.9483 57.7854C59.9484 57.7854 59.9485 57.7854 59.9486 57.7854C59.9487 57.7854 59.9489 57.7854 59.949 57.7854C59.9491 57.7854 59.9492 57.7854 59.9493 57.7854C59.9494 57.7854 59.9495 57.7854 59.9496 57.7854C59.9497 57.7854 59.9498 57.7854 59.9499 57.7854C59.95 57.7854 59.9501 57.7854 59.9502 57.7854C59.9503 57.7854 59.9504 57.7854 59.9505 57.7854C59.9506 57.7854 59.9507 57.7854 59.9508 57.7854C59.9509 57.7854 59.951 57.7854 59.9511 57.7854C59.9512 57.7854 59.9513 57.7854 59.9514 57.7854C59.9515 57.7854 59.9516 57.7854 59.9517 57.7854C59.9518 57.7854 59.9518 57.7854 59.9519 57.7854C59.952 57.7854 59.9521 57.7854 59.9522 57.7854C59.9523 57.7854 59.9523 57.7854 59.9524 57.7854C59.9525 57.7854 59.9526 57.7854 59.9526 57.7854C59.9527 57.7854 59.9528 57.7854 59.9529 57.7854C59.9529 57.7854 59.953 57.7854 59.9531 57.7854C59.9532 57.7854 59.9532 57.7854 59.9533 57.7854C59.9534 57.7854 59.9534 57.7854 59.9535 57.7854C59.9536 57.7854 59.9536 57.7854 59.9537 57.7854C59.9537 57.7854 59.9538 57.7854 59.9539 57.7854C59.9539 57.7854 59.954 57.7854 59.954 57.7854C59.9541 57.7854 59.9541 57.7854 59.9542 57.7854C59.9543 57.7854 59.9543 57.7854 59.9544 57.7854C59.9544 57.7854 59.9545 57.7854 59.9545 57.7854C59.9546 57.7854 59.9546 57.7854 59.9546 57.7854C59.9547 57.7854 59.9547 57.7854 59.9548 57.7854C59.9548 57.7854 59.9549 57.7854 59.9549 57.7854C59.9549 57.7854 59.955 57.7854 59.955 57.7854C59.955 57.7854 59.9551 57.7854 59.9551 57.7854C59.9552 57.7854 59.9552 57.7854 59.9552 57.7854C59.9552 57.7854 59.9553 57.7854 59.9553 57.7854C59.9553 57.7854 59.9554 57.7854 59.9554 57.7854C59.9554 57.7854 59.9554 57.7854 59.9555 57.7854C59.9555 57.7854 59.9555 57.7854 59.9555 57.7854C59.9555 57.7854 59.9556 57.7854 59.9556 57.7854C59.9556 57.7854 59.9556 57.7854 59.9556 57.7854C59.9556 57.7854 59.9556 57.7854 59.9557 57.7854C59.9557 57.7854 59.9557 57.7854 59.9557 57.7854C59.9557 57.7854 59.9557 57.7854 59.9557 57.7854C59.9557 57.7854 59.9557 57.7854 59.9557 57.7854C59.9557 57.7854 59.9557 57.7854 59.9557 19.7854C59.9557 -18.2146 59.9557 -18.2146 59.9557 -18.2146C59.9557 -18.2146 59.9557 -18.2146 59.9557 -18.2146C59.9557 -18.2146 59.9557 -18.2146 59.9557 -18.2146C59.9557 -18.2146 59.9557 -18.2146 59.9557 -18.2146C59.9556 -18.2146 59.9556 -18.2146 59.9556 -18.2146C59.9556 -18.2146 59.9556 -18.2146 59.9556 -18.2146C59.9556 -18.2146 59.9555 -18.2146 59.9555 -18.2146C59.9555 -18.2146 59.9555 -18.2146 59.9555 -18.2146C59.9554 -18.2146 59.9554 -18.2146 59.9554 -18.2146C59.9554 -18.2146 59.9553 -18.2146 59.9553 -18.2146C59.9553 -18.2146 59.9552 -18.2146 59.9552 -18.2146C59.9552 -18.2146 59.9552 -18.2146 59.9551 -18.2146C59.9551 -18.2146 59.955 -18.2146 59.955 -18.2146C59.955 -18.2146 59.9549 -18.2146 59.9549 -18.2146C59.9549 -18.2146 59.9548 -18.2146 59.9548 -18.2146C59.9547 -18.2146 59.9547 -18.2146 59.9546 -18.2146C59.9546 -18.2146 59.9546 -18.2146 59.9545 -18.2146C59.9545 -18.2146 59.9544 -18.2146 59.9544 -18.2146C59.9543 -18.2146 59.9543 -18.2146 59.9542 -18.2146C59.9541 -18.2146 59.9541 -18.2146 59.954 -18.2146C59.954 -18.2146 59.9539 -18.2146 59.9539 -18.2146C59.9538 -18.2146 59.9537 -18.2146 59.9537 -18.2146C59.9536 -18.2146 59.9536 -18.2146 59.9535 -18.2146C59.9534 -18.2146 59.9534 -18.2146 59.9533 -18.2146C59.9532 -18.2146 59.9532 -18.2146 59.9531 -18.2146C59.953 -18.2146 59.9529 -18.2146 59.9529 -18.2146C59.9528 -18.2146 59.9527 -18.2146 59.9526 -18.2146C59.9526 -18.2146 59.9525 -18.2146 59.9524 -18.2146C59.9523 -18.2146 59.9523 -18.2146 59.9522 -18.2146C59.9521 -18.2146 59.952 -18.2146 59.9519 -18.2146C59.9518 -18.2146 59.9518 -18.2146 59.9517 -18.2146C59.9516 -18.2146 59.9515 -18.2146 59.9514 -18.2146C59.9513 -18.2146 59.9512 -18.2146 59.9511 -18.2146C59.951 -18.2146 59.9509 -18.2146 59.9508 -18.2146C59.9507 -18.2146 59.9506 -18.2146 59.9505 -18.2146C59.9504 -18.2146 59.9503 -18.2146 59.9502 -18.2146C59.9501 -18.2146 59.95 -18.2146 59.9499 -18.2146C59.9498 -18.2146 59.9497 -18.2146 59.9496 -18.2146C59.9495 -18.2146 59.9494 -18.2146 59.9493 -18.2146C59.9492 -18.2146 59.9491 -18.2146 59.949 -18.2146C59.9489 -18.2146 59.9487 -18.2146 59.9486 -18.2146C59.9485 -18.2146 59.9484 -18.2146 59.9483 -18.2146C59.9482 -18.2146 59.948 -18.2146 59.9479 -18.2146C59.9478 -18.2146 59.9477 -18.2146 59.9475 -18.2146C59.9474 -18.2146 59.9473 -18.2146 59.9472 -18.2146C59.947 -18.2146 59.9469 -18.2146 59.9468 -18.2146C59.9467 -18.2146 59.9465 -18.2146 59.9464 -18.2146C59.9463 -18.2146 59.9461 -18.2146 59.946 -18.2146C59.9459 -18.2146 59.9457 -18.2146 59.9456 -18.2146C59.9454 -18.2146 59.9453 -18.2146 59.9452 -18.2146C59.945 -18.2146 59.9449 -18.2146 59.9447 -18.2146C59.9446 -18.2146 59.9444 -18.2146 59.9443 -18.2146C59.9441 -18.2146 59.944 -18.2146 59.9439 -18.2146C59.9437 -18.2146 59.9436 -18.2146 59.9434 -18.2146C59.9432 -18.2146 59.9431 -18.2146 59.9429 -18.2146C59.9428 -18.2146 59.9426 -18.2146 59.9425 -18.2146C59.9423 -18.2146 59.9422 -18.2146 59.942 -18.2146C59.9418 -18.2146 59.9417 -18.2146 59.9415 -18.2146C59.9413 -18.2146 59.9412 -18.2146 59.941 -18.2146C59.9408 -18.2146 59.9407 -18.2146 59.9405 -18.2146C59.9403 -18.2146 59.9402 -18.2146 59.94 -18.2146C59.9398 -18.2146 59.9396 -18.2146 59.9395 -18.2146C59.9393 -18.2146 59.9391 -18.2146 59.9389 -18.2146C59.9388 -18.2146 59.9386 -18.2146 59.9384 -18.2146C59.9382 -18.2146 59.938 -18.2146 59.9379 -18.2146C59.9377 -18.2146 59.9375 -18.2146 59.9373 -18.2146C59.9371 -18.2146 59.9369 -18.2146 59.9367 -18.2146C59.9366 -18.2146 59.9364 -18.2146 59.9362 -18.2146C59.936 -18.2146 59.9358 -18.2146 59.9356 -18.2146C59.9354 -18.2146 59.9352 -18.2146 59.935 -18.2146C59.9348 -18.2146 59.9346 -18.2146 59.9344 -18.2146C59.9342 -18.2146 59.934 -18.2146 59.9338 -18.2146C59.9336 -18.2146 59.9334 -18.2146 59.9332 -18.2146C59.933 -18.2146 59.9328 -18.2146 59.9326 -18.2146C59.9324 -18.2146 59.9322 -18.2146 59.9319 -18.2146C59.9317 -18.2146 59.9315 -18.2146 59.9313 -18.2146C59.9311 -18.2146 59.9309 -18.2146 59.9307 -18.2146C59.9304 -18.2146 59.9302 -18.2146 59.93 -18.2146C59.9298 -18.2146 59.9296 -18.2146 59.9293 -18.2146C59.9291 -18.2146 59.9289 -18.2146 59.9287 -18.2146C59.9284 -18.2146 59.9282 -18.2146 59.928 -18.2146C59.9278 -18.2146 59.9275 -18.2146 59.9273 -18.2146C59.9271 -18.2146 59.9268 -18.2146 59.9266 -18.2146C59.9264 -18.2146 59.9261 -18.2146 59.9259 -18.2146C59.9257 -18.2146 59.9254 -18.2146 59.9252 -18.2146C59.9249 -18.2146 59.9247 -18.2146 59.9245 -18.2146C59.9242 -18.2146 59.924 -18.2146 59.9237 -18.2146C59.9235 -18.2146 59.9232 -18.2146 59.923 -18.2146C59.9227 -18.2146 59.9225 -18.2146 59.9222 -18.2146C59.922 -18.2146 59.9217 -18.2146 59.9215 -18.2146C59.9212 -18.2146 59.921 -18.2146 59.9207 -18.2146C59.9205 -18.2146 59.9202 -18.2146 59.9199 -18.2146C59.9197 -18.2146 59.9194 -18.2146 59.9192 -18.2146C59.9189 -18.2146 59.9186 -18.2146 59.9184 -18.2146C59.9181 -18.2146 59.9178 -18.2146 59.9176 -18.2146C59.9173 -18.2146 59.917 -18.2146 59.9168 -18.2146C59.9165 -18.2146 59.9162 -18.2146 59.9159 -18.2146C59.9157 -18.2146 59.9154 -18.2146 59.9151 -18.2146C59.9148 -18.2146 59.9146 -18.2146 59.9143 -18.2146C59.914 -18.2146 59.9137 -18.2146 59.9134 -18.2146C59.9132 -18.2146 59.9129 -18.2146 59.9126 -18.2146C59.9123 -18.2146 59.912 -18.2146 59.9117 -18.2146C59.9115 -18.2146 59.9112 -18.2146 59.9109 -18.2146C59.9106 -18.2146 59.9103 -18.2146 59.91 -18.2146C59.9097 -18.2146 59.9094 -18.2146 59.9091 -18.2146C59.9088 -18.2146 59.9085 -18.2146 59.9082 -18.2146C59.9079 -18.2146 59.9076 -18.2146 59.9073 -18.2146C59.907 -18.2146 59.9067 -18.2146 59.9064 -18.2146C59.9061 -18.2146 59.9058 -18.2146 59.9055 -18.2146C59.9052 -18.2146 59.9049 -18.2146 59.9046 -18.2146C59.9043 -18.2146 59.9039 -18.2146 59.9036 -18.2146C59.9033 -18.2146 59.903 -18.2146 59.9027 -18.2146C59.9024 -18.2146 59.9021 -18.2146 59.9017 -18.2146C59.9014 -18.2146 59.9011 -18.2146 59.9008 -18.2146C59.9005 -18.2146 59.9001 -18.2146 59.8998 -18.2146C59.8995 -18.2146 59.8992 -18.2146 59.8988 -18.2146C59.8985 -18.2146 59.8982 -18.2146 59.8979 -18.2146C59.8975 -18.2146 59.8972 -18.2146 59.8969 -18.2146C59.8965 -18.2146 59.8962 -18.2146 59.8959 -18.2146C59.8955 -18.2146 59.8952 -18.2146 59.8948 -18.2146C59.8945 -18.2146 59.8942 -18.2146 59.8938 -18.2146C59.8935 -18.2146 59.8931 -18.2146 59.8928 -18.2146C59.8925 -18.2146 59.8921 -18.2146 59.8918 -18.2146C59.8914 -18.2146 59.8911 -18.2146 59.8907 -18.2146C59.8904 -18.2146 59.89 -18.2146 59.8897 -18.2146C59.8893 -18.2146 59.889 -18.2146 59.8886 -18.2146C59.8882 -18.2146 59.8879 -18.2146 59.8875 -18.2146C59.8872 -18.2146 59.8868 -18.2146 59.8865 -18.2146C59.8861 -18.2146 59.8857 -18.2146 59.8854 -18.2146C59.885 -18.2146 59.8846 -18.2146 59.8843 -18.2146C59.8839 -18.2146 59.8835 -18.2146 59.8832 -18.2146C59.8828 -18.2146 59.8824 -18.2146 59.8821 -18.2146C59.8817 -18.2146 59.8813 -18.2146 59.8809 -18.2146C59.8806 -18.2146 59.8802 -18.2146 59.8798 -18.2146C59.8794 -18.2146 59.8791 -18.2146 59.8787 -18.2146C59.8783 -18.2146 59.8779 -18.2146 59.8775 -18.2146C59.8771 -18.2146 59.8768 -18.2146 59.8764 -18.2146C59.876 -18.2146 59.8756 -18.2146 59.8752 -18.2146C59.8748 -18.2146 59.8744 -18.2146 59.874 -18.2146C59.8736 -18.2146 59.8733 -18.2146 59.8729 -18.2146C59.8725 -18.2146 59.8721 -18.2146 59.8717 -18.2146C59.8713 -18.2146 59.8709 -18.2146 59.8705 -18.2146C59.8701 -18.2146 59.8697 -18.2146 59.8693 -18.2146C59.8689 -18.2146 59.8685 -18.2146 59.8681 -18.2146C59.8677 -18.2146 59.8672 -18.2146 59.8668 -18.2146C59.8664 -18.2146 59.866 -18.2146 59.8656 -18.2146C59.8652 -18.2146 59.8648 -18.2146 59.8644 -18.2146C59.864 -18.2146 59.8635 -18.2146 59.8631 -18.2146C59.8627 -18.2146 59.8623 -18.2146 59.8619 -18.2146C59.8614 -18.2146 59.861 -18.2146 59.8606 -18.2146C59.8602 -18.2146 59.8598 -18.2146 59.8593 -18.2146C59.8589 -18.2146 59.8585 -18.2146 59.858 -18.2146C59.8576 -18.2146 59.8572 -18.2146 59.8568 -18.2146C59.8563 -18.2146 59.8559 -18.2146 59.8555 -18.2146C59.855 -18.2146 59.8546 -18.2146 59.8542 -18.2146C59.8537 -18.2146 59.8533 -18.2146 59.8528 -18.2146C59.8524 -18.2146 59.852 -18.2146 59.8515 -18.2146C59.8511 -18.2146 59.8506 -18.2146 59.8502 -18.2146C59.8497 -18.2146 59.8493 -18.2146 59.8488 -18.2146C59.8484 -18.2146 59.8479 -18.2146 59.8475 -18.2146C59.847 -18.2146 59.8466 -18.2146 59.8461 -18.2146C59.8457 -18.2146 59.8452 -18.2146 59.8448 -18.2146C59.8443 -18.2146 59.8439 -18.2146 59.8434 -18.2146C59.8429 -18.2146 59.8425 -18.2146 59.842 -18.2146C59.8416 -18.2146 59.8411 -18.2146 59.8406 -18.2146C59.8402 -18.2146 59.8397 -18.2146 59.8392 -18.2146C59.8388 -18.2146 59.8383 -18.2146 59.8378 -18.2146C59.8373 -18.2146 59.8369 -18.2146 59.8364 -18.2146C59.8359 -18.2146 59.8354 -18.2146 59.835 -18.2146C59.8345 -18.2146 59.834 -18.2146 59.8335 -18.2146C59.8331 -18.2146 59.8326 -18.2146 59.8321 -18.2146C59.8316 -18.2146 59.8311 -18.2146 59.8306 -18.2146C59.8302 -18.2146 59.8297 -18.2146 59.8292 -18.2146C59.8287 -18.2146 59.8282 -18.2146 59.8277 -18.2146C59.8272 -18.2146 59.8267 -18.2146 59.8262 -18.2146C59.8258 -18.2146 59.8253 -18.2146 59.8248 -18.2146C59.8243 -18.2146 59.8238 -18.2146 59.8233 -18.2146C59.8228 -18.2146 59.8223 -18.2146 59.8218 -18.2146C59.8213 -18.2146 59.8208 -18.2146 59.8203 -18.2146C59.8198 -18.2146 59.8192 -18.2146 59.8187 -18.2146C59.8182 -18.2146 59.8177 -18.2146 59.8172 -18.2146C59.8167 -18.2146 59.8162 -18.2146 59.8157 -18.2146C59.8152 -18.2146 59.8147 -18.2146 59.8141 -18.2146C59.8136 -18.2146 59.8131 -18.2146 59.8126 -18.2146C59.8121 -18.2146 59.8115 -18.2146 59.811 -18.2146C59.8105 -18.2146 59.81 -18.2146 59.8095 -18.2146C59.8089 -18.2146 59.8084 -18.2146 59.8079 -18.2146C59.8074 -18.2146 59.8068 -18.2146 59.8063 -18.2146C59.8058 -18.2146 59.8052 -18.2146 59.8047 -18.2146C59.8042 -18.2146 59.8036 -18.2146 59.8031 -18.2146C59.8026 -18.2146 59.802 -18.2146 59.8015 -18.2146C59.8009 -18.2146 59.8004 -18.2146 59.7999 -18.2146C59.7993 -18.2146 59.7988 -18.2146 59.7982 -18.2146C59.7977 -18.2146 59.7972 -18.2146 59.7966 -18.2146C59.7961 -18.2146 59.7955 -18.2146 59.795 -18.2146C59.7944 -18.2146 59.7939 -18.2146 59.7933 -18.2146C59.7928 -18.2146 59.7922 -18.2146 59.7916 -18.2146C59.7911 -18.2146 59.7905 -18.2146 59.79 -18.2146C59.7894 -18.2146 59.7889 -18.2146 59.7883 -18.2146C59.7877 -18.2146 59.7872 -18.2146 59.7866 -18.2146C59.786 -18.2146 59.7855 -18.2146 59.7849 -18.2146C59.7843 -18.2146 59.7838 -18.2146 59.7832 -18.2146C59.7826 -18.2146 59.7821 -18.2146 59.7815 -18.2146C59.7809 -18.2146 59.7804 -18.2146 59.7798 -18.2146C59.7792 -18.2146 59.7786 -18.2146 59.778 -18.2146C59.7775 -18.2146 59.7769 -18.2146 59.7763 -18.2146C59.7757 -18.2146 59.7751 -18.2146 59.7746 -18.2146C59.774 -18.2146 59.7734 -18.2146 59.7728 -18.2146C59.7722 -18.2146 59.7716 -18.2146 59.771 -18.2146C59.7705 -18.2146 59.7699 -18.2146 59.7693 -18.2146C59.7687 -18.2146 59.7681 -18.2146 59.7675 -18.2146C59.7669 -18.2146 59.7663 -18.2146 59.7657 -18.2146C59.7651 -18.2146 59.7645 -18.2146 59.7639 -18.2146C59.7633 -18.2146 59.7627 -18.2146 59.7621 -18.2146C59.7615 -18.2146 59.7609 -18.2146 59.7603 -18.2146C59.7597 -18.2146 59.7591 -18.2146 59.7585 -18.2146C59.7579 -18.2146 59.7572 -18.2146 59.7566 -18.2146C59.756 -18.2146 59.7554 -18.2146 59.7548 -18.2146C59.7542 -18.2146 59.7536 -18.2146 59.753 -18.2146C59.7523 -18.2146 59.7517 -18.2146 59.7511 -18.2146C59.7505 -18.2146 59.7499 -18.2146 59.7492 -18.2146C59.7486 -18.2146 59.748 -18.2146 59.7474 -18.2146C59.7467 -18.2146 59.7461 -18.2146 59.7455 -18.2146C59.7448 -18.2146 59.7442 -18.2146 59.7436 -18.2146C59.743 -18.2146 59.7423 -18.2146 59.7417 -18.2146C59.7411 -18.2146 59.7404 -18.2146 59.7398 -18.2146C59.7391 -18.2146 59.7385 -18.2146 59.7379 -18.2146C59.7372 -18.2146 59.7366 -18.2146 59.7359 -18.2146C59.7353 -18.2146 59.7347 -18.2146 59.734 -18.2146C59.7334 -18.2146 59.7327 -18.2146 59.7321 -18.2146C59.7314 -18.2146 59.7308 -18.2146 59.7301 -18.2146C59.7295 -18.2146 59.7288 -18.2146 59.7282 -18.2146C59.7275 -18.2146 59.7269 -18.2146 59.7262 -18.2146C59.7255 -18.2146 59.7249 -18.2146 59.7242 -18.2146C59.7236 -18.2146 59.7229 -18.2146 59.7222 -18.2146C59.7216 -18.2146 59.7209 -18.2146 59.7202 -18.2146C59.7196 -18.2146 59.7189 -18.2146 59.7182 -18.2146C59.7176 -18.2146 59.7169 -18.2146 59.7162 -18.2146C59.7156 -18.2146 59.7149 -18.2146 59.7142 -18.2146C59.7135 -18.2146 59.7129 -18.2146 59.7122 -18.2146C59.7115 -18.2146 59.7108 -18.2146 59.7102 -18.2146C59.7095 -18.2146 59.7088 -18.2146 59.7081 -18.2146C59.7074 -18.2146 59.7068 -18.2146 59.7061 -18.2146C59.7054 -18.2146 59.7047 -18.2146 59.704 -18.2146C59.7033 -18.2146 59.7026 -18.2146 59.7019 -18.2146C59.7013 -18.2146 59.7006 -18.2146 59.6999 -18.2146C59.6992 -18.2146 59.6985 -18.2146 59.6978 -18.2146C59.6971 -18.2146 59.6964 -18.2146 59.6957 -18.2146C59.695 -18.2146 59.6943 -18.2146 59.6936 -18.2146C59.6929 -18.2146 59.6922 -18.2146 59.6915 -18.2146C59.6908 -18.2146 59.6901 -18.2146 59.6894 -18.2146C59.6887 -18.2146 59.6879 -18.2146 59.6872 -18.2146C59.6865 -18.2146 59.6858 -18.2146 59.6851 -18.2146C59.6844 -18.2146 59.6837 -18.2146 59.683 -18.2146C59.6822 -18.2146 59.6815 -18.2146 59.6808 -18.2146C59.6801 -18.2146 59.6794 -18.2146 59.6786 -18.2146V57.7854C59.6794 57.7854 59.6801 57.7854 59.6808 57.7854C59.6815 57.7854 59.6822 57.7854 59.683 57.7854C59.6837 57.7854 59.6844 57.7854 59.6851 57.7854C59.6858 57.7854 59.6865 57.7854 59.6872 57.7854C59.6879 57.7854 59.6887 57.7854 59.6894 57.7854C59.6901 57.7854 59.6908 57.7854 59.6915 57.7854C59.6922 57.7854 59.6929 57.7854 59.6936 57.7854C59.6943 57.7854 59.695 57.7854 59.6957 57.7854C59.6964 57.7854 59.6971 57.7854 59.6978 57.7854C59.6985 57.7854 59.6992 57.7854 59.6999 57.7854C59.7006 57.7854 59.7013 57.7854 59.7019 57.7854C59.7026 57.7854 59.7033 57.7854 59.704 57.7854C59.7047 57.7854 59.7054 57.7854 59.7061 57.7854C59.7068 57.7854 59.7074 57.7854 59.7081 57.7854C59.7088 57.7854 59.7095 57.7854 59.7102 57.7854C59.7108 57.7854 59.7115 57.7854 59.7122 57.7854C59.7129 57.7854 59.7135 57.7854 59.7142 57.7854C59.7149 57.7854 59.7156 57.7854 59.7162 57.7854C59.7169 57.7854 59.7176 57.7854 59.7182 57.7854C59.7189 57.7854 59.7196 57.7854 59.7202 57.7854C59.7209 57.7854 59.7216 57.7854 59.7222 57.7854C59.7229 57.7854 59.7236 57.7854 59.7242 57.7854C59.7249 57.7854 59.7255 57.7854 59.7262 57.7854C59.7269 57.7854 59.7275 57.7854 59.7282 57.7854C59.7288 57.7854 59.7295 57.7854 59.7301 57.7854C59.7308 57.7854 59.7314 57.7854 59.7321 57.7854C59.7327 57.7854 59.7334 57.7854 59.734 57.7854C59.7347 57.7854 59.7353 57.7854 59.7359 57.7854C59.7366 57.7854 59.7372 57.7854 59.7379 57.7854C59.7385 57.7854 59.7391 57.7854 59.7398 57.7854C59.7404 57.7854 59.7411 57.7854 59.7417 57.7854C59.7423 57.7854 59.743 57.7854 59.7436 57.7854C59.7442 57.7854 59.7448 57.7854 59.7455 57.7854C59.7461 57.7854 59.7467 57.7854 59.7474 57.7854C59.748 57.7854 59.7486 57.7854 59.7492 57.7854C59.7499 57.7854 59.7505 57.7854 59.7511 57.7854C59.7517 57.7854 59.7523 57.7854 59.753 57.7854C59.7536 57.7854 59.7542 57.7854 59.7548 57.7854C59.7554 57.7854 59.756 57.7854 59.7566 57.7854C59.7572 57.7854 59.7579 57.7854 59.7585 57.7854C59.7591 57.7854 59.7597 57.7854 59.7603 57.7854C59.7609 57.7854 59.7615 57.7854 59.7621 57.7854C59.7627 57.7854 59.7633 57.7854 59.7639 57.7854C59.7645 57.7854 59.7651 57.7854 59.7657 57.7854C59.7663 57.7854 59.7669 57.7854 59.7675 57.7854C59.7681 57.7854 59.7687 57.7854 59.7693 57.7854C59.7699 57.7854 59.7705 57.7854 59.771 57.7854C59.7716 57.7854 59.7722 57.7854 59.7728 57.7854C59.7734 57.7854 59.774 57.7854 59.7746 57.7854C59.7751 57.7854 59.7757 57.7854 59.7763 57.7854C59.7769 57.7854 59.7775 57.7854 59.778 57.7854C59.7786 57.7854 59.7792 57.7854 59.7798 57.7854C59.7804 57.7854 59.7809 57.7854 59.7815 57.7854C59.7821 57.7854 59.7826 57.7854 59.7832 57.7854C59.7838 57.7854 59.7843 57.7854 59.7849 57.7854C59.7855 57.7854 59.786 57.7854 59.7866 57.7854C59.7872 57.7854 59.7877 57.7854 59.7883 57.7854C59.7889 57.7854 59.7894 57.7854 59.79 57.7854C59.7905 57.7854 59.7911 57.7854 59.7916 57.7854C59.7922 57.7854 59.7928 57.7854 59.7933 57.7854C59.7939 57.7854 59.7944 57.7854 59.795 57.7854C59.7955 57.7854 59.7961 57.7854 59.7966 57.7854C59.7972 57.7854 59.7977 57.7854 59.7982 57.7854C59.7988 57.7854 59.7993 57.7854 59.7999 57.7854C59.8004 57.7854 59.8009 57.7854 59.8015 57.7854C59.802 57.7854 59.8026 57.7854 59.8031 57.7854C59.8036 57.7854 59.8042 57.7854 59.8047 57.7854C59.8052 57.7854 59.8058 57.7854 59.8063 57.7854C59.8068 57.7854 59.8074 57.7854 59.8079 57.7854C59.8084 57.7854 59.8089 57.7854 59.8095 57.7854C59.81 57.7854 59.8105 57.7854 59.811 57.7854C59.8115 57.7854 59.8121 57.7854 59.8126 57.7854C59.8131 57.7854 59.8136 57.7854 59.8141 57.7854C59.8147 57.7854 59.8152 57.7854 59.8157 57.7854C59.8162 57.7854 59.8167 57.7854 59.8172 57.7854C59.8177 57.7854 59.8182 57.7854 59.8187 57.7854C59.8192 57.7854 59.8198 57.7854 59.8203 57.7854C59.8208 57.7854 59.8213 57.7854 59.8218 57.7854C59.8223 57.7854 59.8228 57.7854 59.8233 57.7854C59.8238 57.7854 59.8243 57.7854 59.8248 57.7854C59.8253 57.7854 59.8258 57.7854 59.8262 57.7854C59.8267 57.7854 59.8272 57.7854 59.8277 57.7854C59.8282 57.7854 59.8287 57.7854 59.8292 57.7854C59.8297 57.7854 59.8302 57.7854 59.8306 57.7854C59.8311 57.7854 59.8316 57.7854 59.8321 57.7854C59.8326 57.7854 59.8331 57.7854 59.8335 57.7854C59.834 57.7854 59.8345 57.7854 59.835 57.7854C59.8354 57.7854 59.8359 57.7854 59.8364 57.7854C59.8369 57.7854 59.8373 57.7854 59.8378 57.7854C59.8383 57.7854 59.8388 57.7854 59.8392 57.7854C59.8397 57.7854 59.8402 57.7854 59.8406 57.7854C59.8411 57.7854 59.8416 57.7854 59.842 57.7854C59.8425 57.7854 59.8429 57.7854 59.8434 57.7854C59.8439 57.7854 59.8443 57.7854 59.8448 57.7854C59.8452 57.7854 59.8457 57.7854 59.8461 57.7854C59.8466 57.7854 59.847 57.7854 59.8475 57.7854C59.8479 57.7854 59.8484 57.7854 59.8488 57.7854C59.8493 57.7854 59.8497 57.7854 59.8502 57.7854C59.8506 57.7854 59.8511 57.7854 59.8515 57.7854C59.852 57.7854 59.8524 57.7854 59.8528 57.7854C59.8533 57.7854 59.8537 57.7854 59.8542 57.7854C59.8546 57.7854 59.855 57.7854 59.8555 57.7854C59.8559 57.7854 59.8563 57.7854 59.8568 57.7854C59.8572 57.7854 59.8576 57.7854 59.858 57.7854C59.8585 57.7854 59.8589 57.7854 59.8593 57.7854C59.8598 57.7854 59.8602 57.7854 59.8606 57.7854C59.861 57.7854 59.8614 57.7854 59.8619 57.7854C59.8623 57.7854 59.8627 57.7854 59.8631 57.7854C59.8635 57.7854 59.864 57.7854 59.8644 57.7854C59.8648 57.7854 59.8652 57.7854 59.8656 57.7854C59.866 57.7854 59.8664 57.7854 59.8668 57.7854C59.8672 57.7854 59.8677 57.7854 59.8681 57.7854C59.8685 57.7854 59.8689 57.7854 59.8693 57.7854C59.8697 57.7854 59.8701 57.7854 59.8705 57.7854C59.8709 57.7854 59.8713 57.7854 59.8717 57.7854C59.8721 57.7854 59.8725 57.7854 59.8729 57.7854C59.8733 57.7854 59.8736 57.7854 59.874 57.7854C59.8744 57.7854 59.8748 57.7854 59.8752 57.7854C59.8756 57.7854 59.876 57.7854 59.8764 57.7854C59.8768 57.7854 59.8771 57.7854 59.8775 57.7854C59.8779 57.7854 59.8783 57.7854 59.8787 57.7854C59.8791 57.7854 59.8794 57.7854 59.8798 57.7854C59.8802 57.7854 59.8806 57.7854 59.8809 57.7854C59.8813 57.7854 59.8817 57.7854 59.8821 57.7854C59.8824 57.7854 59.8828 57.7854 59.8832 57.7854C59.8835 57.7854 59.8839 57.7854 59.8843 57.7854C59.8846 57.7854 59.885 57.7854 59.8854 57.7854C59.8857 57.7854 59.8861 57.7854 59.8865 57.7854C59.8868 57.7854 59.8872 57.7854 59.8875 57.7854C59.8879 57.7854 59.8882 57.7854 59.8886 57.7854C59.889 57.7854 59.8893 57.7854 59.8897 57.7854C59.89 57.7854 59.8904 57.7854 59.8907 57.7854C59.8911 57.7854 59.8914 57.7854 59.8918 57.7854C59.8921 57.7854 59.8925 57.7854 59.8928 57.7854C59.8931 57.7854 59.8935 57.7854 59.8938 57.7854C59.8942 57.7854 59.8945 57.7854 59.8948 57.7854C59.8952 57.7854 59.8955 57.7854 59.8959 57.7854C59.8962 57.7854 59.8965 57.7854 59.8969 57.7854C59.8972 57.7854 59.8975 57.7854 59.8979 57.7854C59.8982 57.7854 59.8985 57.7854 59.8988 57.7854C59.8992 57.7854 59.8995 57.7854 59.8998 57.7854C59.9001 57.7854 59.9005 57.7854 59.9008 57.7854C59.9011 57.7854 59.9014 57.7854 59.9017 57.7854C59.9021 57.7854 59.9024 57.7854 59.9027 57.7854C59.903 57.7854 59.9033 57.7854 59.9036 57.7854C59.9039 57.7854 59.9043 57.7854 59.9046 57.7854C59.9049 57.7854 59.9052 57.7854 59.9055 57.7854C59.9058 57.7854 59.9061 57.7854 59.9064 57.7854C59.9067 57.7854 59.907 57.7854 59.9073 57.7854C59.9076 57.7854 59.9079 57.7854 59.9082 57.7854C59.9085 57.7854 59.9088 57.7854 59.9091 57.7854C59.9094 57.7854 59.9097 57.7854 59.91 57.7854C59.9103 57.7854 59.9106 57.7854 59.9109 57.7854C59.9112 57.7854 59.9115 57.7854 59.9117 57.7854C59.912 57.7854 59.9123 57.7854 59.9126 57.7854C59.9129 57.7854 59.9132 57.7854 59.9134 57.7854C59.9137 57.7854 59.914 57.7854 59.9143 57.7854C59.9146 57.7854 59.9148 57.7854 59.9151 57.7854C59.9154 57.7854 59.9157 57.7854 59.9159 57.7854C59.9162 57.7854 59.9165 57.7854 59.9168 57.7854C59.917 57.7854 59.9173 57.7854 59.9176 57.7854C59.9178 57.7854 59.9181 57.7854 59.9184 57.7854C59.9186 57.7854 59.9189 57.7854 59.9192 57.7854C59.9194 57.7854 59.9197 57.7854 59.9199 57.7854C59.9202 57.7854 59.9205 57.7854 59.9207 57.7854C59.921 57.7854 59.9212 57.7854 59.9215 57.7854C59.9217 57.7854 59.922 57.7854 59.9222 57.7854C59.9225 57.7854 59.9227 57.7854 59.923 57.7854C59.9232 57.7854 59.9235 57.7854 59.9237 57.7854C59.924 57.7854 59.9242 57.7854 59.9245 57.7854C59.9247 57.7854 59.9249 57.7854 59.9252 57.7854C59.9254 57.7854 59.9257 57.7854 59.9259 57.7854C59.9261 57.7854 59.9264 57.7854 59.9266 57.7854C59.9268 57.7854 59.9271 57.7854 59.9273 57.7854C59.9275 57.7854 59.9278 57.7854 59.928 57.7854C59.9282 57.7854 59.9284 57.7854 59.9287 57.7854C59.9289 57.7854 59.9291 57.7854 59.9293 57.7854C59.9296 57.7854 59.9298 57.7854 59.93 57.7854C59.9302 57.7854 59.9304 57.7854 59.9307 57.7854C59.9309 57.7854 59.9311 57.7854 59.9313 57.7854C59.9315 57.7854 59.9317 57.7854 59.9319 57.7854C59.9322 57.7854 59.9324 57.7854 59.9326 57.7854C59.9328 57.7854 59.933 57.7854 59.9332 57.7854C59.9334 57.7854 59.9336 57.7854 59.9338 57.7854C59.934 57.7854 59.9342 57.7854 59.9344 57.7854C59.9346 57.7854 59.9348 57.7854 59.935 57.7854C59.9352 57.7854 59.9354 57.7854 59.9356 57.7854C59.9358 57.7854 59.936 57.7854 59.9362 57.7854C59.9364 57.7854 59.9366 57.7854 59.9367 57.7854C59.9369 57.7854 59.9371 57.7854 59.9373 57.7854C59.9375 57.7854 59.9377 57.7854 59.9379 57.7854C59.938 57.7854 59.9382 57.7854 59.9384 57.7854C59.9386 57.7854 59.9388 57.7854 59.9389 57.7854C59.9391 57.7854 59.9393 57.7854 59.9395 57.7854C59.9396 57.7854 59.9398 57.7854 59.94 57.7854C59.9402 57.7854 59.9403 57.7854 59.9405 57.7854C59.9407 57.7854 59.9408 57.7854 59.941 57.7854C59.9412 57.7854 59.9413 57.7854 59.9415 57.7854C59.9417 57.7854 59.9418 57.7854 59.942 57.7854C59.9422 57.7854 59.9423 57.7854 59.9425 57.7854C59.9426 57.7854 59.9428 57.7854 59.9429 57.7854C59.9431 57.7854 59.9432 57.7854 59.9434 57.7854C59.9436 57.7854 59.9437 57.7854 59.9439 57.7854C59.944 57.7854 59.9441 57.7854 59.9443 57.7854C59.9444 57.7854 59.9446 57.7854 59.9447 57.7854C59.9449 57.7854 59.945 57.7854 59.9452 57.7854C59.9453 57.7854 59.9454 57.7854 59.9456 57.7854C59.9457 57.7854 59.9459 57.7854 59.946 57.7854C59.9461 57.7854 59.9463 57.7854 59.9464 57.7854C59.9465 57.7854 59.9467 57.7854 59.9468 57.7854C59.9469 57.7854 59.947 57.7854 59.9472 57.7854C59.9473 57.7854 59.9474 57.7854 59.9475 57.7854C59.9477 57.7854 59.9478 57.7854 59.9479 57.7854C59.948 57.7854 59.9482 57.7854 59.9483 57.7854C59.9484 57.7854 59.9485 57.7854 59.9486 57.7854C59.9487 57.7854 59.9489 57.7854 59.949 57.7854C59.9491 57.7854 59.9492 57.7854 59.9493 57.7854C59.9494 57.7854 59.9495 57.7854 59.9496 57.7854C59.9497 57.7854 59.9498 57.7854 59.9499 57.7854C59.95 57.7854 59.9501 57.7854 59.9502 57.7854C59.9503 57.7854 59.9504 57.7854 59.9505 57.7854C59.9506 57.7854 59.9507 57.7854 59.9508 57.7854C59.9509 57.7854 59.951 57.7854 59.9511 57.7854C59.9512 57.7854 59.9513 57.7854 59.9514 57.7854C59.9515 57.7854 59.9516 57.7854 59.9517 57.7854C59.9518 57.7854 59.9518 57.7854 59.9519 57.7854C59.952 57.7854 59.9521 57.7854 59.9522 57.7854C59.9523 57.7854 59.9523 57.7854 59.9524 57.7854C59.9525 57.7854 59.9526 57.7854 59.9526 57.7854C59.9527 57.7854 59.9528 57.7854 59.9529 57.7854C59.9529 57.7854 59.953 57.7854 59.9531 57.7854C59.9532 57.7854 59.9532 57.7854 59.9533 57.7854C59.9534 57.7854 59.9534 57.7854 59.9535 57.7854C59.9536 57.7854 59.9536 57.7854 59.9537 57.7854C59.9537 57.7854 59.9538 57.7854 59.9539 57.7854C59.9539 57.7854 59.954 57.7854 59.954 57.7854C59.9541 57.7854 59.9541 57.7854 59.9542 57.7854C59.9543 57.7854 59.9543 57.7854 59.9544 57.7854C59.9544 57.7854 59.9545 57.7854 59.9545 57.7854C59.9546 57.7854 59.9546 57.7854 59.9546 57.7854C59.9547 57.7854 59.9547 57.7854 59.9548 57.7854C59.9548 57.7854 59.9549 57.7854 59.9549 57.7854C59.9549 57.7854 59.955 57.7854 59.955 57.7854C59.955 57.7854 59.9551 57.7854 59.9551 57.7854C59.9552 57.7854 59.9552 57.7854 59.9552 57.7854C59.9552 57.7854 59.9553 57.7854 59.9553 57.7854C59.9553 57.7854 59.9554 57.7854 59.9554 57.7854C59.9554 57.7854 59.9554 57.7854 59.9555 57.7854C59.9555 57.7854 59.9555 57.7854 59.9555 57.7854C59.9555 57.7854 59.9556 57.7854 59.9556 57.7854C59.9556 57.7854 59.9556 57.7854 59.9556 57.7854C59.9556 57.7854 59.9556 57.7854 59.9557 57.7854C59.9557 57.7854 59.9557 57.7854 59.9557 57.7854C59.9557 57.7854 59.9557 57.7854 59.9557 57.7854C59.9557 57.7854 59.9557 57.7854 59.9557 57.7854C59.9557 57.7854 59.9557 57.7854 59.9557 19.7854C59.9557 -18.2146 59.9557 -18.2146 59.9557 -18.2146C59.9557 -18.2146 59.9557 -18.2146 59.9557 -18.2146C59.9557 -18.2146 59.9557 -18.2146 59.9557 -18.2146C59.9557 -18.2146 59.9557 -18.2146 59.9557 -18.2146C59.9556 -18.2146 59.9556 -18.2146 59.9556 -18.2146C59.9556 -18.2146 59.9556 -18.2146 59.9556 -18.2146C59.9556 -18.2146 59.9555 -18.2146 59.9555 -18.2146C59.9555 -18.2146 59.9555 -18.2146 59.9555 -18.2146C59.9554 -18.2146 59.9554 -18.2146 59.9554 -18.2146C59.9554 -18.2146 59.9553 -18.2146 59.9553 -18.2146C59.9553 -18.2146 59.9552 -18.2146 59.9552 -18.2146C59.9552 -18.2146 59.9552 -18.2146 59.9551 -18.2146C59.9551 -18.2146 59.955 -18.2146 59.955 -18.2146C59.955 -18.2146 59.9549 -18.2146 59.9549 -18.2146C59.9549 -18.2146 59.9548 -18.2146 59.9548 -18.2146C59.9547 -18.2146 59.9547 -18.2146 59.9546 -18.2146C59.9546 -18.2146 59.9546 -18.2146 59.9545 -18.2146C59.9545 -18.2146 59.9544 -18.2146 59.9544 -18.2146C59.9543 -18.2146 59.9543 -18.2146 59.9542 -18.2146C59.9541 -18.2146 59.9541 -18.2146 59.954 -18.2146C59.954 -18.2146 59.9539 -18.2146 59.9539 -18.2146C59.9538 -18.2146 59.9537 -18.2146 59.9537 -18.2146C59.9536 -18.2146 59.9536 -18.2146 59.9535 -18.2146C59.9534 -18.2146 59.9534 -18.2146 59.9533 -18.2146C59.9532 -18.2146 59.9532 -18.2146 59.9531 -18.2146C59.953 -18.2146 59.9529 -18.2146 59.9529 -18.2146C59.9528 -18.2146 59.9527 -18.2146 59.9526 -18.2146C59.9526 -18.2146 59.9525 -18.2146 59.9524 -18.2146C59.9523 -18.2146 59.9523 -18.2146 59.9522 -18.2146C59.9521 -18.2146 59.952 -18.2146 59.9519 -18.2146C59.9518 -18.2146 59.9518 -18.2146 59.9517 -18.2146C59.9516 -18.2146 59.9515 -18.2146 59.9514 -18.2146C59.9513 -18.2146 59.9512 -18.2146 59.9511 -18.2146C59.951 -18.2146 59.9509 -18.2146 59.9508 -18.2146C59.9507 -18.2146 59.9506 -18.2146 59.9505 -18.2146C59.9504 -18.2146 59.9503 -18.2146 59.9502 -18.2146C59.9501 -18.2146 59.95 -18.2146 59.9499 -18.2146C59.9498 -18.2146 59.9497 -18.2146 59.9496 -18.2146C59.9495 -18.2146 59.9494 -18.2146 59.9493 -18.2146C59.9492 -18.2146 59.9491 -18.2146 59.949 -18.2146C59.9489 -18.2146 59.9487 -18.2146 59.9486 -18.2146C59.9485 -18.2146 59.9484 -18.2146 59.9483 -18.2146C59.9482 -18.2146 59.948 -18.2146 59.9479 -18.2146C59.9478 -18.2146 59.9477 -18.2146 59.9475 -18.2146C59.9474 -18.2146 59.9473 -18.2146 59.9472 -18.2146C59.947 -18.2146 59.9469 -18.2146 59.9468 -18.2146C59.9467 -18.2146 59.9465 -18.2146 59.9464 -18.2146C59.9463 -18.2146 59.9461 -18.2146 59.946 -18.2146C59.9459 -18.2146 59.9457 -18.2146 59.9456 -18.2146C59.9454 -18.2146 59.9453 -18.2146 59.9452 -18.2146C59.945 -18.2146 59.9449 -18.2146 59.9447 -18.2146C59.9446 -18.2146 59.9444 -18.2146 59.9443 -18.2146C59.9441 -18.2146 59.944 -18.2146 59.9439 -18.2146C59.9437 -18.2146 59.9436 -18.2146 59.9434 -18.2146C59.9432 -18.2146 59.9431 -18.2146 59.9429 -18.2146C59.9428 -18.2146 59.9426 -18.2146 59.9425 -18.2146C59.9423 -18.2146 59.9422 -18.2146 59.942 -18.2146C59.9418 -18.2146 59.9417 -18.2146 59.9415 -18.2146C59.9413 -18.2146 59.9412 -18.2146 59.941 -18.2146C59.9408 -18.2146 59.9407 -18.2146 59.9405 -18.2146C59.9403 -18.2146 59.9402 -18.2146 59.94 -18.2146C59.9398 -18.2146 59.9396 -18.2146 59.9395 -18.2146C59.9393 -18.2146 59.9391 -18.2146 59.9389 -18.2146C59.9388 -18.2146 59.9386 -18.2146 59.9384 -18.2146C59.9382 -18.2146 59.938 -18.2146 59.9379 -18.2146C59.9377 -18.2146 59.9375 -18.2146 59.9373 -18.2146C59.9371 -18.2146 59.9369 -18.2146 59.9367 -18.2146C59.9366 -18.2146 59.9364 -18.2146 59.9362 -18.2146C59.936 -18.2146 59.9358 -18.2146 59.9356 -18.2146C59.9354 -18.2146 59.9352 -18.2146 59.935 -18.2146C59.9348 -18.2146 59.9346 -18.2146 59.9344 -18.2146C59.9342 -18.2146 59.934 -18.2146 59.9338 -18.2146C59.9336 -18.2146 59.9334 -18.2146 59.9332 -18.2146C59.933 -18.2146 59.9328 -18.2146 59.9326 -18.2146C59.9324 -18.2146 59.9322 -18.2146 59.9319 -18.2146C59.9317 -18.2146 59.9315 -18.2146 59.9313 -18.2146C59.9311 -18.2146 59.9309 -18.2146 59.9307 -18.2146C59.9304 -18.2146 59.9302 -18.2146 59.93 -18.2146C59.9298 -18.2146 59.9296 -18.2146 59.9293 -18.2146C59.9291 -18.2146 59.9289 -18.2146 59.9287 -18.2146C59.9284 -18.2146 59.9282 -18.2146 59.928 -18.2146C59.9278 -18.2146 59.9275 -18.2146 59.9273 -18.2146C59.9271 -18.2146 59.9268 -18.2146 59.9266 -18.2146C59.9264 -18.2146 59.9261 -18.2146 59.9259 -18.2146C59.9257 -18.2146 59.9254 -18.2146 59.9252 -18.2146C59.9249 -18.2146 59.9247 -18.2146 59.9245 -18.2146C59.9242 -18.2146 59.924 -18.2146 59.9237 -18.2146C59.9235 -18.2146 59.9232 -18.2146 59.923 -18.2146C59.9227 -18.2146 59.9225 -18.2146 59.9222 -18.2146C59.922 -18.2146 59.9217 -18.2146 59.9215 -18.2146C59.9212 -18.2146 59.921 -18.2146 59.9207 -18.2146C59.9205 -18.2146 59.9202 -18.2146 59.9199 -18.2146C59.9197 -18.2146 59.9194 -18.2146 59.9192 -18.2146C59.9189 -18.2146 59.9186 -18.2146 59.9184 -18.2146C59.9181 -18.2146 59.9178 -18.2146 59.9176 -18.2146C59.9173 -18.2146 59.917 -18.2146 59.9168 -18.2146C59.9165 -18.2146 59.9162 -18.2146 59.9159 -18.2146C59.9157 -18.2146 59.9154 -18.2146 59.9151 -18.2146C59.9148 -18.2146 59.9146 -18.2146 59.9143 -18.2146C59.914 -18.2146 59.9137 -18.2146 59.9134 -18.2146C59.9132 -18.2146 59.9129 -18.2146 59.9126 -18.2146C59.9123 -18.2146 59.912 -18.2146 59.9117 -18.2146C59.9115 -18.2146 59.9112 -18.2146 59.9109 -18.2146C59.9106 -18.2146 59.9103 -18.2146 59.91 -18.2146C59.9097 -18.2146 59.9094 -18.2146 59.9091 -18.2146C59.9088 -18.2146 59.9085 -18.2146 59.9082 -18.2146C59.9079 -18.2146 59.9076 -18.2146 59.9073 -18.2146C59.907 -18.2146 59.9067 -18.2146 59.9064 -18.2146C59.9061 -18.2146 59.9058 -18.2146 59.9055 -18.2146C59.9052 -18.2146 59.9049 -18.2146 59.9046 -18.2146C59.9043 -18.2146 59.9039 -18.2146 59.9036 -18.2146C59.9033 -18.2146 59.903 -18.2146 59.9027 -18.2146C59.9024 -18.2146 59.9021 -18.2146 59.9017 -18.2146C59.9014 -18.2146 59.9011 -18.2146 59.9008 -18.2146C59.9005 -18.2146 59.9001 -18.2146 59.8998 -18.2146C59.8995 -18.2146 59.8992 -18.2146 59.8988 -18.2146C59.8985 -18.2146 59.8982 -18.2146 59.8979 -18.2146C59.8975 -18.2146 59.8972 -18.2146 59.8969 -18.2146C59.8965 -18.2146 59.8962 -18.2146 59.8959 -18.2146C59.8955 -18.2146 59.8952 -18.2146 59.8948 -18.2146C59.8945 -18.2146 59.8942 -18.2146 59.8938 -18.2146C59.8935 -18.2146 59.8931 -18.2146 59.8928 -18.2146C59.8925 -18.2146 59.8921 -18.2146 59.8918 -18.2146C59.8914 -18.2146 59.8911 -18.2146 59.8907 -18.2146C59.8904 -18.2146 59.89 -18.2146 59.8897 -18.2146C59.8893 -18.2146 59.889 -18.2146 59.8886 -18.2146C59.8882 -18.2146 59.8879 -18.2146 59.8875 -18.2146C59.8872 -18.2146 59.8868 -18.2146 59.8865 -18.2146C59.8861 -18.2146 59.8857 -18.2146 59.8854 -18.2146C59.885 -18.2146 59.8846 -18.2146 59.8843 -18.2146C59.8839 -18.2146 59.8835 -18.2146 59.8832 -18.2146C59.8828 -18.2146 59.8824 -18.2146 59.8821 -18.2146C59.8817 -18.2146 59.8813 -18.2146 59.8809 -18.2146C59.8806 -18.2146 59.8802 -18.2146 59.8798 -18.2146C59.8794 -18.2146 59.8791 -18.2146 59.8787 -18.2146C59.8783 -18.2146 59.8779 -18.2146 59.8775 -18.2146C59.8771 -18.2146 59.8768 -18.2146 59.8764 -18.2146C59.876 -18.2146 59.8756 -18.2146 59.8752 -18.2146C59.8748 -18.2146 59.8744 -18.2146 59.874 -18.2146C59.8736 -18.2146 59.8733 -18.2146 59.8729 -18.2146C59.8725 -18.2146 59.8721 -18.2146 59.8717 -18.2146C59.8713 -18.2146 59.8709 -18.2146 59.8705 -18.2146C59.8701 -18.2146 59.8697 -18.2146 59.8693 -18.2146C59.8689 -18.2146 59.8685 -18.2146 59.8681 -18.2146C59.8677 -18.2146 59.8672 -18.2146 59.8668 -18.2146C59.8664 -18.2146 59.866 -18.2146 59.8656 -18.2146C59.8652 -18.2146 59.8648 -18.2146 59.8644 -18.2146C59.864 -18.2146 59.8635 -18.2146 59.8631 -18.2146C59.8627 -18.2146 59.8623 -18.2146 59.8619 -18.2146C59.8614 -18.2146 59.861 -18.2146 59.8606 -18.2146C59.8602 -18.2146 59.8598 -18.2146 59.8593 -18.2146C59.8589 -18.2146 59.8585 -18.2146 59.858 -18.2146C59.8576 -18.2146 59.8572 -18.2146 59.8568 -18.2146C59.8563 -18.2146 59.8559 -18.2146 59.8555 -18.2146C59.855 -18.2146 59.8546 -18.2146 59.8542 -18.2146C59.8537 -18.2146 59.8533 -18.2146 59.8528 -18.2146C59.8524 -18.2146 59.852 -18.2146 59.8515 -18.2146C59.8511 -18.2146 59.8506 -18.2146 59.8502 -18.2146C59.8497 -18.2146 59.8493 -18.2146 59.8488 -18.2146C59.8484 -18.2146 59.8479 -18.2146 59.8475 -18.2146C59.847 -18.2146 59.8466 -18.2146 59.8461 -18.2146C59.8457 -18.2146 59.8452 -18.2146 59.8448 -18.2146C59.8443 -18.2146 59.8439 -18.2146 59.8434 -18.2146C59.8429 -18.2146 59.8425 -18.2146 59.842 -18.2146C59.8416 -18.2146 59.8411 -18.2146 59.8406 -18.2146C59.8402 -18.2146 59.8397 -18.2146 59.8392 -18.2146C59.8388 -18.2146 59.8383 -18.2146 59.8378 -18.2146C59.8373 -18.2146 59.8369 -18.2146 59.8364 -18.2146C59.8359 -18.2146 59.8354 -18.2146 59.835 -18.2146C59.8345 -18.2146 59.834 -18.2146 59.8335 -18.2146C59.8331 -18.2146 59.8326 -18.2146 59.8321 -18.2146C59.8316 -18.2146 59.8311 -18.2146 59.8306 -18.2146C59.8302 -18.2146 59.8297 -18.2146 59.8292 -18.2146C59.8287 -18.2146 59.8282 -18.2146 59.8277 -18.2146C59.8272 -18.2146 59.8267 -18.2146 59.8262 -18.2146C59.8258 -18.2146 59.8253 -18.2146 59.8248 -18.2146C59.8243 -18.2146 59.8238 -18.2146 59.8233 -18.2146C59.8228 -18.2146 59.8223 -18.2146 59.8218 -18.2146C59.8213 -18.2146 59.8208 -18.2146 59.8203 -18.2146C59.8198 -18.2146 59.8192 -18.2146 59.8187 -18.2146C59.8182 -18.2146 59.8177 -18.2146 59.8172 -18.2146C59.8167 -18.2146 59.8162 -18.2146 59.8157 -18.2146C59.8152 -18.2146 59.8147 -18.2146 59.8141 -18.2146C59.8136 -18.2146 59.8131 -18.2146 59.8126 -18.2146C59.8121 -18.2146 59.8115 -18.2146 59.811 -18.2146C59.8105 -18.2146 59.81 -18.2146 59.8095 -18.2146C59.8089 -18.2146 59.8084 -18.2146 59.8079 -18.2146C59.8074 -18.2146 59.8068 -18.2146 59.8063 -18.2146C59.8058 -18.2146 59.8052 -18.2146 59.8047 -18.2146C59.8042 -18.2146 59.8036 -18.2146 59.8031 -18.2146C59.8026 -18.2146 59.802 -18.2146 59.8015 -18.2146C59.8009 -18.2146 59.8004 -18.2146 59.7999 -18.2146C59.7993 -18.2146 59.7988 -18.2146 59.7982 -18.2146C59.7977 -18.2146 59.7972 -18.2146 59.7966 -18.2146C59.7961 -18.2146 59.7955 -18.2146 59.795 -18.2146C59.7944 -18.2146 59.7939 -18.2146 59.7933 -18.2146C59.7928 -18.2146 59.7922 -18.2146 59.7916 -18.2146C59.7911 -18.2146 59.7905 -18.2146 59.79 -18.2146C59.7894 -18.2146 59.7889 -18.2146 59.7883 -18.2146C59.7877 -18.2146 59.7872 -18.2146 59.7866 -18.2146C59.786 -18.2146 59.7855 -18.2146 59.7849 -18.2146C59.7843 -18.2146 59.7838 -18.2146 59.7832 -18.2146C59.7826 -18.2146 59.7821 -18.2146 59.7815 -18.2146C59.7809 -18.2146 59.7804 -18.2146 59.7798 -18.2146C59.7792 -18.2146 59.7786 -18.2146 59.778 -18.2146C59.7775 -18.2146 59.7769 -18.2146 59.7763 -18.2146C59.7757 -18.2146 59.7751 -18.2146 59.7746 -18.2146C59.774 -18.2146 59.7734 -18.2146 59.7728 -18.2146C59.7722 -18.2146 59.7716 -18.2146 59.771 -18.2146C59.7705 -18.2146 59.7699 -18.2146 59.7693 -18.2146C59.7687 -18.2146 59.7681 -18.2146 59.7675 -18.2146C59.7669 -18.2146 59.7663 -18.2146 59.7657 -18.2146C59.7651 -18.2146 59.7645 -18.2146 59.7639 -18.2146C59.7633 -18.2146 59.7627 -18.2146 59.7621 -18.2146C59.7615 -18.2146 59.7609 -18.2146 59.7603 -18.2146C59.7597 -18.2146 59.7591 -18.2146 59.7585 -18.2146C59.7579 -18.2146 59.7572 -18.2146 59.7566 -18.2146C59.756 -18.2146 59.7554 -18.2146 59.7548 -18.2146C59.7542 -18.2146 59.7536 -18.2146 59.753 -18.2146C59.7523 -18.2146 59.7517 -18.2146 59.7511 -18.2146C59.7505 -18.2146 59.7499 -18.2146 59.7492 -18.2146C59.7486 -18.2146 59.748 -18.2146 59.7474 -18.2146C59.7467 -18.2146 59.7461 -18.2146 59.7455 -18.2146C59.7448 -18.2146 59.7442 -18.2146 59.7436 -18.2146C59.743 -18.2146 59.7423 -18.2146 59.7417 -18.2146C59.7411 -18.2146 59.7404 -18.2146 59.7398 -18.2146C59.7391 -18.2146 59.7385 -18.2146 59.7379 -18.2146C59.7372 -18.2146 59.7366 -18.2146 59.7359 -18.2146C59.7353 -18.2146 59.7347 -18.2146 59.734 -18.2146C59.7334 -18.2146 59.7327 -18.2146 59.7321 -18.2146C59.7314 -18.2146 59.7308 -18.2146 59.7301 -18.2146C59.7295 -18.2146 59.7288 -18.2146 59.7282 -18.2146C59.7275 -18.2146 59.7269 -18.2146 59.7262 -18.2146C59.7255 -18.2146 59.7249 -18.2146 59.7242 -18.2146C59.7236 -18.2146 59.7229 -18.2146 59.7222 -18.2146C59.7216 -18.2146 59.7209 -18.2146 59.7202 -18.2146C59.7196 -18.2146 59.7189 -18.2146 59.7182 -18.2146C59.7176 -18.2146 59.7169 -18.2146 59.7162 -18.2146C59.7156 -18.2146 59.7149 -18.2146 59.7142 -18.2146C59.7135 -18.2146 59.7129 -18.2146 59.7122 -18.2146C59.7115 -18.2146 59.7108 -18.2146 59.7102 -18.2146C59.7095 -18.2146 59.7088 -18.2146 59.7081 -18.2146C59.7074 -18.2146 59.7068 -18.2146 59.7061 -18.2146C59.7054 -18.2146 59.7047 -18.2146 59.704 -18.2146C59.7033 -18.2146 59.7026 -18.2146 59.7019 -18.2146C59.7013 -18.2146 59.7006 -18.2146 59.6999 -18.2146C59.6992 -18.2146 59.6985 -18.2146 59.6978 -18.2146C59.6971 -18.2146 59.6964 -18.2146 59.6957 -18.2146C59.695 -18.2146 59.6943 -18.2146 59.6936 -18.2146C59.6929 -18.2146 59.6922 -18.2146 59.6915 -18.2146C59.6908 -18.2146 59.6901 -18.2146 59.6894 -18.2146C59.6887 -18.2146 59.6879 -18.2146 59.6872 -18.2146C59.6865 -18.2146 59.6858 -18.2146 59.6851 -18.2146C59.6844 -18.2146 59.6837 -18.2146 59.683 -18.2146C59.6822 -18.2146 59.6815 -18.2146 59.6808 -18.2146C59.6801 -18.2146 59.6794 -18.2146 59.6786 -18.2146V57.7854ZM59.6786 57.7854C44.603 57.7854 32.3925 45.575 32.3925 30.4993H108.393C108.393 3.6013 86.5765 -18.2146 59.6786 -18.2146V57.7854ZM32.3925 30.4993C32.3925 13.6977 46.3714 2.84371 59.6786 2.84371V78.8437C84.8081 78.8437 108.393 59.123 108.393 30.4993H32.3925ZM59.6786 2.84371C75.6335 2.84371 87.3342 15.9441 87.3342 30.4993H11.3342C11.3342 56.1377 31.9016 78.8437 59.6786 78.8437V2.84371ZM87.3342 30.4993C87.3342 44.7065 75.9818 57.7854 59.6786 57.7854V-18.2146C32.2921 -18.2146 11.3342 4.46977 11.3342 30.4993H87.3342Z" fill="black" mask="url(#path-2-inside-1_83_113)"/>
<mask id="path-4-inside-2_83_113" fill="white">
<path d="M114.726 46.0168C107.706 39.7363 98.4701 36.4113 88.8645 36.7807H85.909C85.1701 39.7363 84.0618 42.3224 82.584 44.5391C84.8007 44.1696 86.6479 44.1696 88.8645 44.1696C95.884 43.8002 102.903 46.0168 108.445 50.0807V76.6807H115.834V47.1252L114.726 46.0168Z"/>
</mask>
<path d="M114.726 46.0168C107.706 39.7363 98.4701 36.4113 88.8645 36.7807H85.909C85.1701 39.7363 84.0618 42.3224 82.584 44.5391C84.8007 44.1696 86.6479 44.1696 88.8645 44.1696C95.884 43.8002 102.903 46.0168 108.445 50.0807V76.6807H115.834V47.1252L114.726 46.0168Z" fill="black"/>
<path d="M114.726 46.0168L141.596 19.1468L140.85 18.401L140.064 17.6977L114.726 46.0168ZM88.8645 36.7807V74.7807H89.595L90.325 74.7527L88.8645 36.7807ZM85.909 36.7807V-1.21927H56.2395L49.0436 27.5644L85.909 36.7807ZM82.584 44.5391L50.9661 23.4605L2.31176 96.4419L88.8311 82.022L82.584 44.5391ZM88.8645 44.1696V82.1696H89.8639L90.8618 82.1171L88.8645 44.1696ZM108.445 50.0807H146.445V30.8247L130.917 19.4373L108.445 50.0807ZM108.445 76.6807H70.4451V114.681H108.445V76.6807ZM115.834 76.6807V114.681H153.834V76.6807H115.834ZM115.834 47.1252H153.834V31.3851L142.704 20.2551L115.834 47.1252ZM140.064 17.6977C125.618 4.77257 106.745 -1.93506 87.4041 -1.19119L90.325 74.7527C90.2749 74.7546 90.1431 74.7481 89.9602 74.6827C89.7783 74.6176 89.5751 74.5039 89.3874 74.336L140.064 17.6977ZM88.8645 -1.21927H85.909V74.7807H88.8645V-1.21927ZM49.0436 27.5644C49.2116 26.8923 49.708 25.3475 50.9661 23.4605L114.202 65.6177C118.416 59.2972 121.129 52.5803 122.774 45.9971L49.0436 27.5644ZM88.8311 82.022C88.6848 82.0464 88.5365 82.0686 88.3882 82.0882C88.2399 82.1078 88.0997 82.1239 87.9699 82.1369C87.7066 82.1632 87.5209 82.1734 87.4497 82.1766C87.4172 82.1781 87.4155 82.1778 87.4534 82.1768C87.4924 82.1758 87.5642 82.1744 87.6819 82.173C87.8013 82.1717 87.9509 82.1707 88.1518 82.1702C88.2514 82.1699 88.3586 82.1698 88.4783 82.1697C88.5994 82.1696 88.7238 82.1696 88.8645 82.1696V6.16962C86.8671 6.16962 82.0626 6.10179 76.3368 7.05609L88.8311 82.022ZM90.8618 82.1171C89.7402 82.1761 88.82 82.0226 88.1047 81.804C87.3967 81.5877 86.686 81.2468 85.9733 80.7241L130.917 19.4373C118.589 10.3965 102.985 5.37382 86.8673 6.22215L90.8618 82.1171ZM70.4451 50.0807V76.6807H146.445V50.0807H70.4451ZM108.445 114.681H115.834V38.6807H108.445V114.681ZM153.834 76.6807V47.1252H77.834V76.6807H153.834ZM142.704 20.2551L141.596 19.1468L87.8556 72.8869L88.9639 73.9952L142.704 20.2551Z" fill="black" mask="url(#path-4-inside-2_83_113)"/>
<mask id="path-6-inside-3_83_113" fill="white">
<path d="M80.3675 13.1366C82.2148 8.70328 87.387 6.48661 92.1898 8.33383C96.6231 10.1811 98.8398 15.3533 96.9925 20.1561C95.5148 23.4811 92.1898 25.6977 88.8648 25.6977C88.1259 25.6977 87.0175 25.6977 86.2786 25.3283C86.6481 27.1755 86.6481 29.0227 86.6481 30.5005V32.7172C87.387 32.7172 88.1259 33.0866 88.8648 33.0866C98.1009 33.0866 105.49 25.6977 105.49 16.8311C105.49 7.59494 98.1009 0.206055 89.2342 0.206055C83.3231 0.206055 78.1509 3.16161 75.1953 8.33383C77.0425 9.44217 78.8898 10.9199 80.3675 13.1366V13.1366Z"/>
</mask>
<path d="M80.3675 13.1366C82.2148 8.70328 87.387 6.48661 92.1898 8.33383C96.6231 10.1811 98.8398 15.3533 96.9925 20.1561C95.5148 23.4811 92.1898 25.6977 88.8648 25.6977C88.1259 25.6977 87.0175 25.6977 86.2786 25.3283C86.6481 27.1755 86.6481 29.0227 86.6481 30.5005V32.7172C87.387 32.7172 88.1259 33.0866 88.8648 33.0866C98.1009 33.0866 105.49 25.6977 105.49 16.8311C105.49 7.59494 98.1009 0.206055 89.2342 0.206055C83.3231 0.206055 78.1509 3.16161 75.1953 8.33383C77.0425 9.44217 78.8898 10.9199 80.3675 13.1366V13.1366Z" fill="black"/>
<path d="M92.1898 8.33383L106.805 -26.7431L106.321 -26.9449L105.831 -27.1333L92.1898 8.33383ZM96.9925 20.1561L131.717 35.5893L132.111 34.7028L132.46 33.7973L96.9925 20.1561ZM86.2786 25.3283L103.273 -8.65996L33.7791 -43.4068L49.0166 32.7807L86.2786 25.3283ZM86.6481 32.7172H48.6481V70.7172H86.6481V32.7172ZM75.1953 8.33383L42.2021 -10.5194L23.7457 21.7793L55.6445 40.9186L75.1953 8.33383ZM115.444 27.752C109.034 43.1381 92.1079 49.0161 78.5486 43.801L105.831 -27.1333C82.666 -36.0429 55.3959 -25.7315 45.2906 -1.47877L115.444 27.752ZM77.5744 43.4108C62.1883 36.9999 56.3103 20.0742 61.5254 6.51485L132.46 33.7973C141.369 10.6323 131.058 -16.6378 106.805 -26.7431L77.5744 43.4108ZM62.2677 4.72279C66.4128 -4.6036 76.0341 -12.3023 88.8648 -12.3023V63.6977C108.345 63.6977 124.617 51.5657 131.717 35.5893L62.2677 4.72279ZM88.8648 -12.3023C88.2833 -12.3023 89.6508 -12.3301 91.3528 -12.1599C92.3012 -12.065 93.8065 -11.8714 95.6482 -11.4352C97.4414 -11.0105 100.164 -10.2145 103.273 -8.65996L69.2845 59.3165C75.7489 62.5487 81.5803 63.2419 83.7906 63.463C86.4162 63.7255 88.7073 63.6977 88.8648 63.6977V-12.3023ZM49.0166 32.7807C48.7355 31.3752 48.6714 30.3725 48.6544 30.0502C48.6449 29.869 48.645 29.7874 48.6461 29.8638C48.6475 29.9659 48.6481 30.0992 48.6481 30.5005H124.648C124.648 29.414 124.754 23.9423 123.541 17.8759L49.0166 32.7807ZM48.6481 30.5005V32.7172H124.648V30.5005H48.6481ZM86.6481 70.7172C83.7281 70.7172 81.439 70.3565 80.1993 70.124C79.558 70.0038 79.0633 69.8913 78.8081 69.8315C78.5817 69.7784 78.4017 69.7327 78.5401 69.7673C78.5864 69.7789 78.9512 69.8708 79.3623 69.9671C79.8022 70.0703 80.4816 70.2232 81.3077 70.378C82.9168 70.6797 85.5753 71.0866 88.8648 71.0866V-4.91339C91.7848 -4.91339 94.0739 -4.5527 95.3135 -4.32027C95.9548 -4.20002 96.4495 -4.08752 96.7047 -4.02772C96.9311 -3.97465 97.1112 -3.92893 96.9727 -3.96354C96.9264 -3.97511 96.5617 -4.06701 96.1506 -4.16337C95.7107 -4.26647 95.0312 -4.41938 94.2052 -4.57426C92.5961 -4.87597 89.9375 -5.28283 86.6481 -5.28283V70.7172ZM88.8648 71.0866C118.53 71.0866 143.49 47.2378 143.49 16.8311H67.4898C67.4898 4.15761 77.6716 -4.91339 88.8648 -4.91339V71.0866ZM143.49 16.8311C143.49 -12.8343 119.641 -37.7939 89.2342 -37.7939V38.2061C76.5608 38.2061 67.4898 28.0242 67.4898 16.8311H143.49ZM89.2342 -37.7939C69.836 -37.7939 51.9971 -27.6608 42.2021 -10.5194L108.189 27.1871C106.424 30.2755 103.693 33.17 100.096 35.2454C96.5099 37.3142 92.6945 38.2061 89.2342 38.2061V-37.7939ZM55.6445 40.9186C54.1784 40.0389 51.2416 37.9532 48.7496 34.2152L111.985 -7.942C106.538 -16.1133 99.9067 -21.1546 94.7462 -24.2509L55.6445 40.9186Z" fill="black" mask="url(#path-6-inside-3_83_113)"/>
<mask id="path-8-inside-4_83_113" fill="white">
<path d="M38.25 44.9073C36.7722 42.6906 35.6639 40.1045 34.925 37.1489H31.9694C22.3639 36.7795 13.1278 40.1045 6.10833 46.0156L5 47.1239V76.6795H12.3889V50.0795C18.3 46.0156 24.95 43.7989 31.9694 44.1684C34.1861 44.1684 36.4028 44.5378 38.25 44.9073Z"/>
</mask>
<path d="M38.25 44.9073C36.7722 42.6906 35.6639 40.1045 34.925 37.1489H31.9694C22.3639 36.7795 13.1278 40.1045 6.10833 46.0156L5 47.1239V76.6795H12.3889V50.0795C18.3 46.0156 24.95 43.7989 31.9694 44.1684C34.1861 44.1684 36.4028 44.5378 38.25 44.9073Z" fill="black"/>
<path d="M38.25 44.9073L30.7976 82.1693L120.756 100.161L69.8679 23.8287L38.25 44.9073ZM34.925 37.1489L71.7904 27.9326L64.5945 -0.851059H34.925V37.1489ZM31.9694 37.1489L30.509 75.1209L31.2389 75.1489H31.9694V37.1489ZM6.10833 46.0156L-18.3688 16.949L-19.6122 17.9961L-20.7617 19.1455L6.10833 46.0156ZM5 47.1239L-21.87 20.2539L-33 31.3838V47.1239H5ZM5 76.6795H-33V114.68H5V76.6795ZM12.3889 76.6795V114.68H50.3889V76.6795H12.3889ZM12.3889 50.0795L-9.13921 18.7659L-25.6111 30.0903V50.0795H12.3889ZM31.9694 44.1684L29.9722 82.1159L30.9701 82.1684H31.9694V44.1684ZM69.8679 23.8287C71.126 25.7158 71.6224 27.2605 71.7904 27.9326L-1.94041 46.3653C-0.29462 52.9485 2.41847 59.6655 6.63209 65.9859L69.8679 23.8287ZM34.925 -0.851059H31.9694V75.1489H34.925V-0.851059ZM33.4299 -0.822983C14.1767 -1.56349 -4.26381 5.07108 -18.3688 16.949L30.5855 75.0822C30.544 75.1171 30.5216 75.1298 30.5206 75.1303C30.5194 75.131 30.5264 75.1271 30.5382 75.123C30.5639 75.1141 30.555 75.1226 30.509 75.1209L33.4299 -0.822983ZM-20.7617 19.1455L-21.87 20.2539L31.87 73.994L32.9784 72.8857L-20.7617 19.1455ZM-33 47.1239V76.6795H43V47.1239H-33ZM5 114.68H12.3889V38.6795H5V114.68ZM50.3889 76.6795V50.0795H-25.6111V76.6795H50.3889ZM33.917 81.3931C34.0554 81.298 33.7637 81.5255 33.0106 81.7589C32.2135 82.0059 31.1514 82.1779 29.9722 82.1159L33.9667 6.22091C17.2714 5.34221 2.4967 10.7662 -9.13921 18.7659L33.917 81.3931ZM31.9694 82.1684C31.4756 82.1684 31.091 82.1481 30.8338 82.1292C30.5753 82.1101 30.4035 82.0893 30.3334 82.0801C30.2223 82.0656 30.3197 82.0738 30.7976 82.1693L45.7024 7.64521C43.1914 7.143 38.0197 6.16839 31.9694 6.16839V82.1684Z" fill="black" mask="url(#path-8-inside-4_83_113)"/>
<mask id="path-10-inside-5_83_113" fill="white">
<path d="M31.9684 32.7181C32.7073 32.7181 33.4461 32.7181 34.185 32.3486V30.132C34.185 28.2847 34.185 26.4375 34.5545 24.9597C33.8156 25.3292 32.7073 25.3292 31.9684 25.3292C27.1656 25.3292 23.1017 21.2653 23.1017 16.4625C23.1017 11.6597 27.1656 7.59585 31.9684 7.59585C35.6628 7.59585 38.9878 9.81251 40.4656 13.1375C41.9434 11.2903 44.16 9.44307 46.0073 7.96529C41.2045 0.206959 31.2295 -2.37915 23.4712 2.42363C15.7128 7.2264 13.1267 17.2014 17.9295 24.9597C20.885 29.7625 26.0573 32.7181 31.9684 32.7181V32.7181Z"/>
</mask>
<path d="M31.9684 32.7181C32.7073 32.7181 33.4461 32.7181 34.185 32.3486V30.132C34.185 28.2847 34.185 26.4375 34.5545 24.9597C33.8156 25.3292 32.7073 25.3292 31.9684 25.3292C27.1656 25.3292 23.1017 21.2653 23.1017 16.4625C23.1017 11.6597 27.1656 7.59585 31.9684 7.59585C35.6628 7.59585 38.9878 9.81251 40.4656 13.1375C41.9434 11.2903 44.16 9.44307 46.0073 7.96529C41.2045 0.206959 31.2295 -2.37915 23.4712 2.42363C15.7128 7.2264 13.1267 17.2014 17.9295 24.9597C20.885 29.7625 26.0573 32.7181 31.9684 32.7181V32.7181Z" fill="black"/>
<path d="M34.185 32.3486L51.1792 66.3369L72.185 55.8339V32.3486H34.185ZM34.5545 24.9597L71.4199 34.1761L91.4583 -45.9775L17.5604 -9.0285L34.5545 24.9597ZM40.4656 13.1375L5.74076 28.5708L31.1129 85.6581L70.1386 36.8759L40.4656 13.1375ZM46.0073 7.96529L69.7457 37.6383L96.0442 16.5995L78.3173 -12.0362L46.0073 7.96529ZM17.9295 24.9597L50.2925 5.04403L50.2661 5.00111L50.2396 4.95826L17.9295 24.9597ZM31.9684 70.7181C32.0543 70.7181 32.8326 70.7212 33.7095 70.6938C34.6566 70.6642 36.0835 70.5918 37.7901 70.3784C41.3641 69.9317 46.0974 68.8777 51.1792 66.3369L17.1909 -1.63961C25.585 -5.83666 33.6641 -5.28193 31.9684 -5.28193V70.7181ZM72.185 32.3486V30.132H-3.81496V32.3486H72.185ZM72.185 30.132C72.185 29.6278 72.1856 29.408 72.1878 29.2333C72.1897 29.0787 72.1911 29.1688 72.1787 29.4046C72.1664 29.6373 72.1329 30.171 72.0392 30.9102C71.9466 31.641 71.7702 32.7748 71.4199 34.1761L-2.31093 15.7434C-4.05309 22.712 -3.81496 29.7563 -3.81496 30.132H72.185ZM17.5604 -9.0285C20.6694 -10.583 23.3917 -11.379 25.1848 -11.8037C27.0266 -12.2399 28.5318 -12.4336 29.4803 -12.5284C31.1823 -12.6986 32.5498 -12.6708 31.9684 -12.6708V63.3292C32.1259 63.3292 34.417 63.357 37.0426 63.0944C39.2529 62.8734 45.0843 62.1801 51.5486 58.948L17.5604 -9.0285ZM31.9684 -12.6708C48.1524 -12.6708 61.1017 0.278487 61.1017 16.4625H-14.8983C-14.8983 42.2521 6.17876 63.3292 31.9684 63.3292V-12.6708ZM61.1017 16.4625C61.1017 32.6466 48.1524 45.5958 31.9684 45.5958V-30.4042C6.17878 -30.4042 -14.8983 -9.32709 -14.8983 16.4625H61.1017ZM31.9684 45.5958C20.3765 45.5958 10.2519 38.721 5.74076 28.5708L75.1904 -2.29575C67.7237 -19.0959 50.9492 -30.4042 31.9684 -30.4042V45.5958ZM70.1386 36.8759C69.8446 37.2435 69.5893 37.5398 69.39 37.763C69.1897 37.9871 69.0252 38.1604 68.9075 38.2813C68.6818 38.5128 68.561 38.6198 68.5926 38.5912C68.619 38.5673 68.7223 38.4754 68.9306 38.3014C69.1387 38.1276 69.3965 37.9176 69.7457 37.6383L22.2688 -21.7077C20.6653 -20.4249 15.2561 -16.1803 10.7926 -10.6009L70.1386 36.8759ZM78.3173 -12.0362C62.9955 -36.7869 29.9126 -46.2559 3.46968 -29.8864L43.4726 34.7337C32.5464 41.4976 19.4135 37.2008 13.6972 27.9668L78.3173 -12.0362ZM3.46968 -29.8864C-21.2811 -14.5646 -30.75 18.5183 -14.3806 44.9612L50.2396 4.95826C57.0034 15.8845 52.7067 29.0174 43.4726 34.7337L3.46968 -29.8864ZM-14.4335 44.8754C-4.53648 60.9581 12.9102 70.7181 31.9684 70.7181V-5.28193C39.2043 -5.28193 46.3066 -1.43312 50.2925 5.04403L-14.4335 44.8754Z" fill="black" mask="url(#path-10-inside-5_83_113)"/>
<mask id="path-12-inside-6_83_113" fill="white">
<path d="M90.3419 68.1825L89.603 67.0742C82.2141 58.9464 71.8697 54.1436 60.7863 54.513C49.703 54.1436 38.9891 58.9464 31.6002 67.0742L30.8613 68.1825V96.2603C30.8613 99.5853 33.4474 102.541 37.1419 102.541H84.4308C87.7558 102.541 90.7113 99.5853 90.7113 96.2603V68.1825H90.3419ZM82.953 95.1519H38.2502V70.7686C44.1613 64.8575 52.2891 61.9019 60.7863 61.9019C68.9141 61.5325 77.0419 64.8575 82.953 70.7686V95.1519Z"/>
</mask>
<path d="M90.3419 68.1825L89.603 67.0742C82.2141 58.9464 71.8697 54.1436 60.7863 54.513C49.703 54.1436 38.9891 58.9464 31.6002 67.0742L30.8613 68.1825V96.2603C30.8613 99.5853 33.4474 102.541 37.1419 102.541H84.4308C87.7558 102.541 90.7113 99.5853 90.7113 96.2603V68.1825H90.3419ZM82.953 95.1519H38.2502V70.7686C44.1613 64.8575 52.2891 61.9019 60.7863 61.9019C68.9141 61.5325 77.0419 64.8575 82.953 70.7686V95.1519Z" fill="black"/>
<path d="M90.3419 68.1825L58.724 89.2611L70.0049 106.182H90.3419V68.1825ZM89.603 67.0742L121.221 45.9955L119.639 43.6227L117.721 41.5126L89.603 67.0742ZM60.7863 54.513L59.5204 92.4919L60.7863 92.5341L62.0523 92.4919L60.7863 54.513ZM31.6002 67.0742L3.48249 41.5126L1.56416 43.6228L-0.0177422 45.9956L31.6002 67.0742ZM30.8613 68.1825L-0.75663 47.104L-7.13867 56.6771V68.1825H30.8613ZM90.7113 68.1825H128.711V30.1825H90.7113V68.1825ZM82.953 95.1519V133.152H120.953V95.1519H82.953ZM38.2502 95.1519H0.250217V133.152H38.2502V95.1519ZM38.2502 70.7686L11.3802 43.8985L0.250217 55.0285V70.7686H38.2502ZM60.7863 61.9019V99.9019H61.6495L62.5118 99.8627L60.7863 61.9019ZM82.953 70.7686H120.953V55.0285L109.823 43.8985L82.953 70.7686ZM121.96 47.1039L121.221 45.9955L57.9851 88.1528L58.724 89.2611L121.96 47.1039ZM117.721 41.5126C103.503 25.8732 82.7043 15.7613 59.5204 16.5341L62.0523 92.4919C61.8762 92.4978 61.6917 92.4824 61.5202 92.4483C61.3524 92.415 61.2368 92.3719 61.1772 92.3455C61.0644 92.2955 61.2119 92.335 61.4853 92.6357L117.721 41.5126ZM62.0523 16.5341C39.2406 15.7737 17.9664 25.5803 3.48249 41.5126L59.7179 92.6357C59.7458 92.6051 59.7887 92.565 59.8442 92.5253C59.9001 92.4853 59.9467 92.4614 59.9712 92.4507C60.0283 92.4258 59.8813 92.504 59.5204 92.4919L62.0523 16.5341ZM-0.0177422 45.9956L-0.75663 47.104L62.4793 89.261L63.2182 88.1527L-0.0177422 45.9956ZM-7.13867 68.1825V96.2603H68.8613V68.1825H-7.13867ZM-7.13867 96.2603C-7.13867 119.095 11.0135 140.541 37.1419 140.541V64.5408C55.8814 64.5408 68.8613 80.0754 68.8613 96.2603H-7.13867ZM37.1419 140.541H84.4308V64.5408H37.1419V140.541ZM84.4308 140.541C108.743 140.541 128.711 120.572 128.711 96.2603H52.7113C52.7113 86.5994 56.9076 78.8177 61.9479 73.7774C66.9882 68.737 74.7699 64.5408 84.4308 64.5408V140.541ZM128.711 96.2603V68.1825H52.7113V96.2603H128.711ZM90.7113 30.1825H90.3419V106.182H90.7113V30.1825ZM82.953 57.1519H38.2502V133.152H82.953V57.1519ZM76.2502 95.1519V70.7686H0.250217V95.1519H76.2502ZM65.1203 97.6387C62.9752 99.7838 60.9714 99.9019 60.7863 99.9019V23.9019C43.6068 23.9019 25.3475 29.9312 11.3802 43.8985L65.1203 97.6387ZM62.5118 99.8627C59.2848 100.009 57.2209 98.7766 56.0829 97.6387L109.823 43.8985C96.8629 30.9383 78.5434 23.0556 59.0608 23.9411L62.5118 99.8627ZM44.953 70.7686V95.1519H120.953V70.7686H44.953Z" fill="black" mask="url(#path-12-inside-6_83_113)"/>
</svg>
