<svg width="258" height="182" viewBox="0 0 258 182" fill="none" xmlns="http://www.w3.org/2000/svg">
<path d="M2.96775 118.2H10.0078V137.08L18.9678 118.2H26.0078L17.6238 134.648L26.1358 163H18.7758L12.8238 143.032L10.0078 148.728V163H2.96775V118.2ZM29.4678 118.2H36.5078V163H29.4678V118.2ZM51.7003 163.64C48.3296 163.64 45.7483 162.68 43.9563 160.76C42.2069 158.84 41.3323 156.131 41.3323 152.632V128.568C41.3323 125.069 42.2069 122.36 43.9563 120.44C45.7483 118.52 48.3296 117.56 51.7003 117.56C55.0709 117.56 57.6309 118.52 59.3803 120.44C61.1723 122.36 62.0683 125.069 62.0683 128.568V133.304H55.4123V128.12C55.4123 125.347 54.2389 123.96 51.8923 123.96C49.5456 123.96 48.3723 125.347 48.3723 128.12V153.144C48.3723 155.875 49.5456 157.24 51.8923 157.24C54.2389 157.24 55.4123 155.875 55.4123 153.144V146.296H62.0683V152.632C62.0683 156.131 61.1723 158.84 59.3803 160.76C57.6309 162.68 55.0709 163.64 51.7003 163.64ZM66.2803 118.2H73.3203V137.08L82.2803 118.2H89.3203L80.9363 134.648L89.4483 163H82.0883L76.1363 143.032L73.3203 148.728V163H66.2803V118.2ZM101.495 163.64C98.0814 163.64 95.5001 162.68 93.7508 160.76C92.0014 158.797 91.1268 156.003 91.1268 152.376V149.816H97.7828V152.888C97.7828 155.789 98.9988 157.24 101.431 157.24C102.625 157.24 103.521 156.899 104.119 156.216C104.759 155.491 105.079 154.339 105.079 152.76C105.079 150.883 104.652 149.24 103.799 147.832C102.945 146.381 101.367 144.653 99.0628 142.648C96.1614 140.088 94.1348 137.784 92.9828 135.736C91.8308 133.645 91.2548 131.299 91.2548 128.696C91.2548 125.155 92.1508 122.424 93.9427 120.504C95.7348 118.541 98.3374 117.56 101.751 117.56C105.121 117.56 107.66 118.541 109.367 120.504C111.116 122.424 111.991 125.197 111.991 128.824V130.68H105.335V128.376C105.335 126.84 105.036 125.731 104.439 125.048C103.841 124.323 102.967 123.96 101.815 123.96C99.4681 123.96 98.2948 125.389 98.2948 128.248C98.2948 129.869 98.7214 131.384 99.5748 132.792C100.471 134.2 102.071 135.907 104.375 137.912C107.319 140.472 109.345 142.797 110.455 144.888C111.564 146.979 112.119 149.432 112.119 152.248C112.119 155.917 111.201 158.733 109.367 160.696C107.575 162.659 104.951 163.64 101.495 163.64ZM121.659 124.6H114.299V118.2H136.059V124.6H128.699V163H121.659V124.6ZM141.97 118.2H151.506L158.802 163H151.762L150.482 154.104V154.232H142.482L141.202 163H134.674L141.97 118.2ZM149.65 148.152L146.514 126.008H146.386L143.314 148.152H149.65ZM162.218 118.2H172.65C176.276 118.2 178.922 119.053 180.586 120.76C182.25 122.424 183.082 125.005 183.082 128.504V131.256C183.082 135.907 181.546 138.851 178.474 140.088V140.216C180.18 140.728 181.375 141.773 182.058 143.352C182.783 144.931 183.146 147.043 183.146 149.688V157.56C183.146 158.84 183.188 159.885 183.274 160.696C183.359 161.464 183.572 162.232 183.914 163H176.746C176.49 162.275 176.319 161.592 176.234 160.952C176.148 160.312 176.106 159.16 176.106 157.496V149.304C176.106 147.256 175.764 145.827 175.082 145.016C174.442 144.205 173.311 143.8 171.69 143.8H169.258V163H162.218V118.2ZM171.818 137.4C173.226 137.4 174.271 137.037 174.954 136.312C175.679 135.587 176.042 134.371 176.042 132.664V129.208C176.042 127.587 175.743 126.413 175.146 125.688C174.591 124.963 173.695 124.6 172.458 124.6H169.258V137.4H171.818ZM193.409 124.6H186.049V118.2H207.809V124.6H200.449V163H193.409V124.6ZM211.218 118.2H230.418V124.6H218.258V136.44H227.922V142.84H218.258V156.6H230.418V163H211.218V118.2ZM234.468 118.2H244.9C248.526 118.2 251.172 119.053 252.836 120.76C254.5 122.424 255.332 125.005 255.332 128.504V131.256C255.332 135.907 253.796 138.851 250.724 140.088V140.216C252.43 140.728 253.625 141.773 254.308 143.352C255.033 144.931 255.396 147.043 255.396 149.688V157.56C255.396 158.84 255.438 159.885 255.524 160.696C255.609 161.464 255.822 162.232 256.164 163H248.996C248.74 162.275 248.569 161.592 248.484 160.952C248.398 160.312 248.356 159.16 248.356 157.496V149.304C248.356 147.256 248.014 145.827 247.332 145.016C246.692 144.205 245.561 143.8 243.94 143.8H241.508V163H234.468V118.2ZM244.068 137.4C245.476 137.4 246.521 137.037 247.204 136.312C247.929 135.587 248.292 134.371 248.292 132.664V129.208C248.292 127.587 247.993 126.413 247.396 125.688C246.841 124.963 245.945 124.6 244.708 124.6H241.508V137.4H244.068Z" fill="#F3842A"/>
<path d="M122.917 33.9167L137.75 10.7312C140.817 6.24375 144.756 4 149.602 4C153.541 4 156.952 5.42603 159.844 8.27808C162.716 11.1401 164.162 14.5406 164.162 18.5196C164.162 21.4514 163.399 24.0492 161.868 26.2929L147.847 46.3819L165.124 70.8737C166.899 73.1673 167.792 75.8499 167.792 78.9163C167.822 80.8518 167.465 82.7739 166.744 84.5701C166.022 86.3663 164.949 88.0005 163.588 89.3772C160.791 92.2891 157.396 93.75 153.417 93.75C149.049 93.75 145.713 92.304 143.42 89.4121L122.917 61.0062V76.2986C122.917 80.6664 121.356 84.7251 119.87 87.1434C117.163 91.5461 113.139 93.75 107.958 93.75C103.251 93.75 99.2177 92.1195 96.6349 88.8935C94.2116 85.9019 93 81.9529 93 77.0266V20.3295C93 15.6725 94.2316 11.8232 96.6897 8.79664C99.2426 5.60054 103.406 4 107.958 4C112.286 4 117.038 5.60054 119.925 8.79664C121.536 10.5717 122.493 12.3567 122.917 14.1816C123.176 15.2985 122.917 17.3877 122.917 20.4641V33.9167Z" stroke="black" stroke-width="8" stroke-linecap="round" stroke-linejoin="round"/>
</svg>
