<svg xmlns="http://www.w3.org/2000/svg" xmlns:xlink="http://www.w3.org/1999/xlink" viewBox="0 0 80 80"><defs><style>.cls-1{opacity:0.9;fill:url(#radial-gradient);}.cls-2{fill:#fff;}</style><radialGradient id="radial-gradient" cx="37" cy="156.82" r="66.26" gradientTransform="translate(-21.21 -135.31) scale(0.96)" gradientUnits="userSpaceOnUse"><stop offset="0" stop-color="#f9c728" stop-opacity="0.8"/><stop offset="0.99" stop-color="#ff4739"/></radialGradient></defs><g id="Layer_2" data-name="Layer 2"><g id="Layer_9" data-name="Layer 9"><g id="_6th_Section" data-name="6th Section"><circle class="cls-1" cx="40" cy="40" r="40"/><path class="cls-2" d="M10,40A30,30,0,1,1,40,70,30,30,0,0,1,10,40Zm14.55,8.52q15.47,8.66,30.91,0a14.28,14.28,0,0,1-7,4.18c.76.93,1.5,1.78,2.2,2.68a1.11,1.11,0,0,0,1.06.46,16.86,16.86,0,0,0,11.74-5.25,1,1,0,0,0,.27-.66c-.09-1.58-.15-3.16-.35-4.72a48.14,48.14,0,0,0-5.35-16.62,1.73,1.73,0,0,0-.49-.58,20.93,20.93,0,0,0-10.33-3.81,1.06,1.06,0,0,0-1.14.56c.86.28,1.7.54,2.52.85s1.64.63,2.44,1,1.62.79,2.39,1.24,1.45.91,2.16,1.38l-.06.15a35.76,35.76,0,0,0-31.12-.05,18.36,18.36,0,0,1,4.51-2.7c1.63-.7,3.3-1.29,5-1.93a1.07,1.07,0,0,0-1.14-.49,20.91,20.91,0,0,0-10.13,3.7,2.25,2.25,0,0,0-.7.77,46.67,46.67,0,0,0-3.58,8.62,43.46,43.46,0,0,0-2.08,12.55,1.09,1.09,0,0,0,.21.69,16.91,16.91,0,0,0,11,5.26A2.28,2.28,0,0,0,29.9,54.7c.47-.7,1-1.33,1.6-2A14.24,14.24,0,0,1,24.55,48.51Z"/><path class="cls-2" d="M51.45,42.39a4.15,4.15,0,1,1-8.29-.13,4.24,4.24,0,0,1,4.35-4.18A4.18,4.18,0,0,1,51.45,42.39Z"/><path class="cls-2" d="M32.7,46.53a4.23,4.23,0,0,1-.13-8.45,4.25,4.25,0,0,1,4.27,4.26A4.19,4.19,0,0,1,32.7,46.53Z"/></g></g></g></svg>