<svg xmlns="http://www.w3.org/2000/svg" xmlns:xlink="http://www.w3.org/1999/xlink" viewBox="0 0 80 80"><defs><style>.cls-1{opacity:0.9;fill:url(#radial-gradient);}.cls-2{fill:#fff;}</style><radialGradient id="radial-gradient" cx="22.09" cy="156.82" r="66.26" gradientTransform="translate(-6.88 -135.31) scale(0.96)" gradientUnits="userSpaceOnUse"><stop offset="0" stop-color="#f9c728" stop-opacity="0.8"/><stop offset="0.99" stop-color="#ff4739"/></radialGradient></defs><g id="Layer_2" data-name="Layer 2"><g id="Layer_9" data-name="Layer 9"><g id="_6th_Section" data-name="6th Section"><circle class="cls-1" cx="40" cy="40" r="40"/><path class="cls-2" d="M45.83,48.43h5.86L53,40H44.14c0-.23,0-.4,0-.58,0-1.71,0-3.43,0-5.14A4,4,0,0,1,48,29.87c1.71-.13,3.43-.08,5.15-.1h1.06V22.35c-.69-.1-1.42-.22-2.15-.29-2.84-.28-5.67-.58-8.49.15a9.82,9.82,0,0,0-7.7,8.58c-.28,2.31-.2,4.67-.27,7,0,.69,0,1.37,0,2.13H28.83V48.4h6.75V70A29.75,29.75,0,0,1,10,40.17,30,30,0,0,1,70,39,29.39,29.39,0,0,1,62.7,59.93,30.42,30.42,0,0,1,45.83,70Z"/></g></g></g></svg>