<svg xmlns="http://www.w3.org/2000/svg" xmlns:xlink="http://www.w3.org/1999/xlink" viewBox="0 0 80 80"><defs><style>.cls-1{opacity:0.9;fill:url(#radial-gradient);}.cls-2{fill:#fff;}</style><radialGradient id="radial-gradient" cx="32.03" cy="156.82" r="66.26" gradientTransform="translate(-16.43 -135.31) scale(0.96)" gradientUnits="userSpaceOnUse"><stop offset="0" stop-color="#f9c728" stop-opacity="0.8"/><stop offset="0.99" stop-color="#ff4739"/></radialGradient></defs><g id="Layer_2" data-name="Layer 2"><g id="Layer_9" data-name="Layer 9"><g id="_6th_Section" data-name="6th Section"><circle class="cls-1" cx="40" cy="40" r="40"/><path class="cls-2" d="M70,40A30,30,0,1,1,40,10,30,30,0,0,1,70,40ZM20.86,40H20.8c0,2.88,0,5.77,0,8.65a12,12,0,0,0,.15,2A10.19,10.19,0,0,0,31,59.16q8.94.09,17.9,0A10.22,10.22,0,0,0,59.2,48.77c0-5.84,0-11.69,0-17.54a11.72,11.72,0,0,0-.64-3.72,10.21,10.21,0,0,0-9.77-6.71c-5.68,0-11.37,0-17.06,0a16.59,16.59,0,0,0-2,.11,10.1,10.1,0,0,0-8.82,9.19C20.72,33.38,20.86,36.67,20.86,40Z"/><path class="cls-2" d="M56.14,40c0,2.44,0,4.88,0,7.32a8.66,8.66,0,0,1-8.88,8.87c-4.88,0-9.76,0-14.64,0A8.66,8.66,0,0,1,24,49a9.78,9.78,0,0,1-.11-1.63q0-7.35,0-14.7a8.61,8.61,0,0,1,8.91-8.87H47.41A8.61,8.61,0,0,1,56,31a9.48,9.48,0,0,1,.11,1.69C56.15,35.16,56.14,37.6,56.14,40ZM40,50.45A10.46,10.46,0,1,0,29.37,40,10.57,10.57,0,0,0,40,50.45ZM51,27A3,3,0,1,0,54,30,3,3,0,0,0,51,27Z"/><path class="cls-2" d="M40,47.45A7.47,7.47,0,1,1,47.59,40,7.54,7.54,0,0,1,40,47.45Z"/></g></g></g></svg>