<?xml version="1.0" encoding="utf-8"?>
<!-- Generator: Adobe Illustrator 25.2.1, SVG Export Plug-In . SVG Version: 6.00 Build 0)  -->
<svg version="1.1" id="Layer_1" xmlns="http://www.w3.org/2000/svg" xmlns:xlink="http://www.w3.org/1999/xlink" x="0px" y="0px"
	 viewBox="0 0 65 75" style="enable-background:new 0 0 65 75;" xml:space="preserve">
<style type="text/css">
	.st0{fill:#E89438;}
	.st1{fill:#94BF54;}
	.st2{fill:#B3D962;}
	.st3{fill:#D9A362;}
</style>
<g>
	<g>
		<path class="st0" d="M41.39,52.75c-0.76,9.26-4.21,19.22-4.21,19.22s-0.58,2.98-1.8,0c-1.08-2.64-3.67-16.45-3.96-19.09
			c0-0.05-0.01-0.09-0.01-0.14H41.39z"/>
		<g>
			<path class="st1" d="M64.5,38.17c-0.02,0.6-0.07,1.2-0.13,1.81c-1.79,17.32-17.5,29.93-35.09,28.18
				c-7.99-0.8-14.99-4.43-20.09-9.77c-0.12-0.13-0.25-0.26-0.37-0.39c-0.12-0.13-0.24-0.26-0.35-0.39c-5.67-6.35-8.74-14.92-7.81-24
				C2.46,16.29,18.16,3.67,35.75,5.43c3.67,0.37,7.14,1.33,10.3,2.79c1.71,0.79,3.34,1.72,4.87,2.78c-1.58-1-3.26-1.86-5.04-2.56
				c-2.52-0.99-5.22-1.66-8.05-1.94C21.47,4.87,6.85,16.6,5.19,32.72c-0.86,8.38,1.94,16.29,7.14,22.18
				c4.8,5.45,11.63,9.17,19.49,9.96c16.36,1.64,30.98-10.1,32.65-26.21C64.48,38.49,64.49,38.33,64.5,38.17z"/>
			<path class="st2" d="M50.92,11c-6.08,8.86-17.03,6.61-24.63,4.3c-7.36-2.24-10.68,0.41-11.97,2.09c1.45-2.3,5.29-6.67,13.22-5.84
				c6.64,0.69,13.87,2.5,18.34-3.1C47.66,9.14,49.34,10,50.92,11z"/>
		</g>
		<g>
			<path class="st1" d="M26.75,2.04c-5.66-0.19-7.87,0.54-9.04,0.9c-4.36,1.32-6.85,4.5-7.96,8.54c-0.39,1.43-0.75,3.29-2.99,5.76
				c0-0.01,0.05-0.11,0.13-0.28c0.83-1.8,1.41-3.69,1.82-5.62c0.92-4.32,3.89-7.6,8.77-9.08C19,1.8,22.92,1.38,26.75,2.04z"/>
			<path class="st2" d="M26.75,2.04c-0.91,4.52-8.06,5.73-11.47,6.07c-3.3,0.32-4.17,1.92-4.39,2.8c0.18-1.15,0.96-3.52,4.25-4.49
				c2.75-0.82,8.36-1.6,9.18-4.56C25.14,1.84,25.95,1.91,26.75,2.04z"/>
		</g>
		<path class="st3" d="M46.06,8.22C46,8.3,45.95,8.37,45.89,8.44"/>
		<path class="st0" d="M59.41,22.93c-1.6,1.95-5.8,4.94-10.66,6.43c-2.16,1.43-4.12,1.68-6.36,3.03c0,0,2.85,2.54,0.37,5.09
			c-0.32,3.62,0.11,4.15-1.62,7.23c0.46,2.4,0.48,5.19,0.25,8.04h-9.98c-0.26-2.57,0.32-4.52,1.21-7.97
			c-0.82-2.23-2.05-5.39-2.33-7.81c-0.29-2.41-1.6-2.02-3.04-4c-1.4-0.33-3.42-0.62-6.63-2.41c-5.26-0.8-9.79-4.54-11.23-5.4
			c-1.44-0.86-3.6-3.11-2.88-3.51c0.72-0.4,3.46,1.11,4.61,2.66c2.88,0.42,6.19,1.71,8.07,2.67c3.24-0.2,7.31,0.45,9.9,1.83
			c0.86-1.23,2.99-0.09,3.42-0.69c0.32-0.45,0.12-1.87,0-2.56c-0.82-0.43-1.54-1.03-1.97-1.82c-0.7-1.3-0.93-3.53,1.07-4.55
			c1.49-0.75,3.34-0.47,4.54,0.68c1.02,0.98,1.89,2.74,1.26,5.8c0.06,0.33-0.28,0.56-0.84,0.65c0.07,0.56,0.2,1.16,0.43,1.42
			c0.49,0.56,1.69-0.51,2.67,0.63c0.97-0.43,6.37-2.77,10.18-2.73c1.9-0.51,4.98-2.54,7.77-3.42c1-1.65,3.57-3.41,4.33-3.08
			C62.7,19.49,60.48,21.64,59.41,22.93z"/>
	</g>
</g>
</svg>
