<svg xmlns="http://www.w3.org/2000/svg" xmlns:xlink="http://www.w3.org/1999/xlink" viewBox="0 0 80 80"><defs><style>.cls-1{opacity:0.9;fill:url(#radial-gradient);}.cls-2{fill:#fff;}</style><radialGradient id="radial-gradient" cx="41.96" cy="156.82" r="66.26" gradientTransform="translate(-25.99 -135.31) scale(0.96)" gradientUnits="userSpaceOnUse"><stop offset="0" stop-color="#f9c728" stop-opacity="0.8"/><stop offset="0.99" stop-color="#ff4739"/></radialGradient></defs><g id="Layer_2" data-name="Layer 2"><g id="Layer_9" data-name="Layer 9"><g id="_6th_Section" data-name="6th Section"><circle class="cls-1" cx="40" cy="40" r="40"/><path class="cls-2" d="M10,41.88V38.13c.07-.56.15-1.12.22-1.68a28.75,28.75,0,0,1,8.64-17.69c7.73-7.49,17-10.19,27.56-8A29.94,29.94,0,0,1,70,39.44,30.05,30.05,0,0,1,45.23,69.53c-1.11.21-2.24.31-3.35.47H38.13a2.92,2.92,0,0,0-.4-.1A28.85,28.85,0,0,1,23.41,65,29.55,29.55,0,0,1,10.47,45.23C10.26,44.12,10.15,43,10,41.88Zm39.22-8.72a10.32,10.32,0,0,1-.73.74Q42,39.8,35.44,45.68a1.32,1.32,0,0,0-.49,1c0,.85-.12,1.71-.18,2.57-.1,1.45-.19,2.91-.29,4.38a1.69,1.69,0,0,0,1.39-.58l3.72-3.59.4.28,6.75,5c1.6,1.17,2.7.75,3.11-1.18q1.68-7.94,3.37-15.85c.5-2.37,1-4.73,1.49-7.1a2.12,2.12,0,0,0-.43-2.24c-.69-.6-1.43-.27-2.15,0L30.69,36.67c-2.45.95-4.91,1.89-7.36,2.87-.53.21-1.15.52-1.09,1.22s.7.83,1.24,1c2.25.71,4.5,1.39,6.75,2.12a1.16,1.16,0,0,0,1.08-.15q5.86-3.72,11.74-7.4c1.62-1,3.23-2,4.86-3A1.07,1.07,0,0,1,49.22,33.16Z"/></g></g></g></svg>