<svg xmlns="http://www.w3.org/2000/svg" xmlns:xlink="http://www.w3.org/1999/xlink" viewBox="0 0 80 80"><defs><style>.cls-1{opacity:0.9;fill:url(#radial-gradient);}.cls-2{fill:#fff;}</style><radialGradient id="radial-gradient" cx="27.06" cy="156.82" r="66.26" gradientTransform="translate(-11.65 -135.31) scale(0.96)" gradientUnits="userSpaceOnUse"><stop offset="0" stop-color="#f9c728" stop-opacity="0.8"/><stop offset="0.99" stop-color="#ff4739"/></radialGradient></defs><g id="Layer_2" data-name="Layer 2"><g id="Layer_9" data-name="Layer 9"><g id="_6th_Section" data-name="6th Section"><circle class="cls-1" cx="40" cy="40" r="40"/><path class="cls-2" d="M41.88,70H38.13a2.79,2.79,0,0,0-.39-.1,27.34,27.34,0,0,1-8.74-2Q13.74,61.49,10.47,45.24c-.22-1.1-.31-2.23-.47-3.35V38.14c0-.17.08-.34.1-.51.2-1.35.32-2.71.61-4a30,30,0,1,1,34.46,36C44.08,69.74,43,69.87,41.88,70ZM32.26,49a16.49,16.49,0,0,1-11.41,3.33,3.08,3.08,0,0,0,.61.45A22.66,22.66,0,0,0,35.9,55.63a21.06,21.06,0,0,0,12.47-5.89A23,23,0,0,0,55.46,32.6a.89.89,0,0,1,.37-.78,19.09,19.09,0,0,0,1.83-1.64c.6-.63,1.13-1.34,1.74-2.07l-4.17,1.13-.08-.19a7.89,7.89,0,0,0,3.11-4c-1.47.53-2.93,1.06-4.4,1.57a.77.77,0,0,1-.89-.19,7.91,7.91,0,0,0-9.06-1.37,8,8,0,0,0-4.35,8.09c0,.26.07.53.11.86a22.77,22.77,0,0,1-16.4-8.33,7.84,7.84,0,0,0-.9,5.7,8,8,0,0,0,3.16,4.83l-.11.2-3.25-.9c-.16,3.42,2.12,6.31,6.15,7.74a1.52,1.52,0,0,1-.35.13c-1,.06-2,.1-2.95.15C25.41,46.06,28.25,48.26,32.26,49Z"/></g></g></g></svg>